<?xml version="1.0" standalone="no"?><!DOCTYPE svg PUBLIC "-//W3C//DTD SVG 1.1//EN" "http://www.w3.org/Graphics/SVG/1.1/DTD/svg11.dtd"><svg width="100%" height="100%" viewBox="0 0 507 425" version="1.1" xmlns="http://www.w3.org/2000/svg" xmlns:xlink="http://www.w3.org/1999/xlink" xml:space="preserve" style="fill-rule:evenodd;clip-rule:evenodd;stroke-linejoin:round;stroke-miterlimit:1.41421;"><g><g><clipPath id="_clip1"><rect x="0.083" y="0" width="507.167" height="424.417"/></clipPath><g clip-path="url(#_clip1)"><rect x="-22" y="4" width="576.083" height="432.166" style="fill:#fff;fill-rule:nonzero;"/><rect x="52.916" y="36.417" width="446.334" height="352.167" style="fill:#fff;"/><rect x="52.916" y="36.417" width="446.334" height="352.167" style="fill:none;stroke-width:0.5px;stroke:#fff;"/><path d="M52.916,388.584l0,-352.167" style="fill:none;stroke-width:0.33px;stroke-dasharray:0.5,4;stroke:#000;"/><path d="M142.166,388.584l0,-352.167" style="fill:none;stroke-width:0.33px;stroke-dasharray:0.5,4;stroke:#000;"/><path d="M231.416,388.584l0,-352.167" style="fill:none;stroke-width:0.33px;stroke-dasharray:0.5,4;stroke:#000;"/><path d="M320.666,388.584l0,-352.167" style="fill:none;stroke-width:0.33px;stroke-dasharray:0.5,4;stroke:#000;"/><path d="M409.916,388.584l0,-352.167" style="fill:none;stroke-width:0.33px;stroke-dasharray:0.5,4;stroke:#000;"/><path d="M499.25,388.584l0,-352.167" style="fill:none;stroke-width:0.33px;stroke-dasharray:0.5,4;stroke:#000;"/><path d="M52.916,388.584l446.334,0" style="fill:none;stroke-width:0.33px;stroke-dasharray:0.5,4;stroke:#000;"/><path d="M52.916,353.334l446.334,0" style="fill:none;stroke-width:0.33px;stroke-dasharray:0.5,4;stroke:#000;"/><path d="M52.916,318.084l446.334,0" style="fill:none;stroke-width:0.33px;stroke-dasharray:0.5,4;stroke:#000;"/><path d="M52.916,282.917l446.334,0" style="fill:none;stroke-width:0.33px;stroke-dasharray:0.5,4;stroke:#000;"/><path d="M52.916,247.667l446.334,0" style="fill:none;stroke-width:0.33px;stroke-dasharray:0.5,4;stroke:#000;"/><path d="M52.916,212.5l446.334,0" style="fill:none;stroke-width:0.33px;stroke-dasharray:0.5,4;stroke:#000;"/><path d="M52.916,177.25l446.334,0" style="fill:none;stroke-width:0.33px;stroke-dasharray:0.5,4;stroke:#000;"/><path d="M52.916,142l446.334,0" style="fill:none;stroke-width:0.33px;stroke-dasharray:0.5,4;stroke:#000;"/><path d="M52.916,106.834l446.334,0" style="fill:none;stroke-width:0.33px;stroke-dasharray:0.5,4;stroke:#000;"/><path d="M52.916,71.584l446.334,0" style="fill:none;stroke-width:0.33px;stroke-dasharray:0.5,4;stroke:#000;"/><path d="M52.916,36.417l446.334,0" style="fill:none;stroke-width:0.33px;stroke-dasharray:0.5,4;stroke:#000;"/><path d="M52.916,388.584l446.334,0" style="fill:none;stroke-width:0.5px;stroke:#000;"/><path d="M52.916,36.417l446.334,0" style="fill:none;stroke-width:0.5px;stroke:#000;"/><path d="M52.916,388.584l0,-352.167" style="fill:none;stroke-width:0.5px;stroke:#000;"/><path d="M499.25,388.584l0,-352.167" style="fill:none;stroke-width:0.5px;stroke:#000;"/><path d="M52.916,388.584l446.334,0" style="fill:none;stroke-width:0.5px;stroke:#000;"/><path d="M52.916,388.584l0,-352.167" style="fill:none;stroke-width:0.5px;stroke:#000;"/><path d="M52.916,388.584l0,-4.5" style="fill:none;stroke-width:0.5px;stroke:#000;"/><path d="M52.916,36.417l0,4.417" style="fill:none;stroke-width:0.5px;stroke:#000;"/><path d="M49.601,399.503c0,-3.206 1.204,-4.928 3.374,-4.928c2.226,0 3.374,1.75 3.374,5.068c0,3.346 -1.148,5.04 -3.374,5.04c-2.226,0 -3.374,-1.736 -3.374,-5.18ZM52.975,395.765c-1.358,0 -2.016,1.19 -2.016,3.668c0,2.744 0.518,4.116 2.016,4.116c1.47,0 2.016,-1.246 2.016,-3.906c0,-2.618 -0.546,-3.878 -2.016,-3.878Z" style="fill:#000;fill-rule:nonzero;"/><path d="M142.166,388.584l0,-4.5" style="fill:none;stroke-width:0.5px;stroke:#000;"/><path d="M142.166,36.417l0,4.417" style="fill:none;stroke-width:0.5px;stroke:#000;"/><path d="M133.018,399.503c0,-3.206 1.204,-4.928 3.374,-4.928c2.226,0 3.374,1.75 3.374,5.068c0,3.346 -1.148,5.04 -3.374,5.04c-2.226,0 -3.374,-1.736 -3.374,-5.18ZM136.392,395.765c-1.358,0 -2.016,1.19 -2.016,3.668c0,2.744 0.518,4.116 2.016,4.116c1.47,0 2.016,-1.246 2.016,-3.906c0,-2.618 -0.546,-3.878 -2.016,-3.878Z" style="fill:#000;fill-rule:nonzero;"/><rect x="141.502" y="402.933" width="1.456" height="1.484" style="fill:#000;fill-rule:nonzero;"/><path d="M147.662,400.049l0.826,-0.462c0.98,-0.532 1.456,-1.19 1.456,-2.1c0,-1.022 -0.756,-1.722 -1.988,-1.722c-1.162,0 -1.904,0.812 -1.904,2.254l0,0.126l-1.288,0l0,-0.21c0,-2.1 1.288,-3.36 3.262,-3.36c1.932,0 3.248,1.19 3.248,2.94c0,1.33 -0.686,2.324 -2.1,3.066l-0.868,0.42c-1.26,0.672 -2.072,1.26 -2.352,2.212l5.32,0l0,1.204l-6.734,0l0,-0.042c0,-2.114 1.022,-3.206 3.122,-4.326Z" style="fill:#000;fill-rule:nonzero;"/><path d="M231.416,388.584l0,-4.5" style="fill:none;stroke-width:0.5px;stroke:#000;"/><path d="M231.416,36.417l0,4.417" style="fill:none;stroke-width:0.5px;stroke:#000;"/><path d="M222.268,399.503c0,-3.206 1.204,-4.928 3.374,-4.928c2.226,0 3.374,1.75 3.374,5.068c0,3.346 -1.148,5.04 -3.374,5.04c-2.226,0 -3.374,-1.736 -3.374,-5.18ZM225.642,395.765c-1.358,0 -2.016,1.19 -2.016,3.668c0,2.744 0.518,4.116 2.016,4.116c1.47,0 2.016,-1.246 2.016,-3.906c0,-2.618 -0.546,-3.878 -2.016,-3.878Z" style="fill:#000;fill-rule:nonzero;"/><rect x="230.752" y="402.933" width="1.456" height="1.484" style="fill:#000;fill-rule:nonzero;"/><path d="M238.074,401.925l-4.298,0l0,-1.274l4.298,-6.076l1.246,0l0,6.202l1.428,0l0,1.148l-1.428,0l0,2.492l-1.246,0l0,-2.492ZM238.074,396.269l-3.094,4.508l3.094,0l0,-4.508Z" style="fill:#000;fill-rule:nonzero;"/><path d="M320.666,388.584l0,-4.5" style="fill:none;stroke-width:0.5px;stroke:#000;"/><path d="M320.666,36.417l0,4.417" style="fill:none;stroke-width:0.5px;stroke:#000;"/><path d="M311.518,399.503c0,-3.206 1.204,-4.928 3.374,-4.928c2.226,0 3.374,1.75 3.374,5.068c0,3.346 -1.148,5.04 -3.374,5.04c-2.226,0 -3.374,-1.736 -3.374,-5.18ZM314.892,395.765c-1.358,0 -2.016,1.19 -2.016,3.668c0,2.744 0.518,4.116 2.016,4.116c1.47,0 2.016,-1.246 2.016,-3.906c0,-2.618 -0.546,-3.878 -2.016,-3.878Z" style="fill:#000;fill-rule:nonzero;"/><rect x="320.002" y="402.933" width="1.456" height="1.484" style="fill:#000;fill-rule:nonzero;"/><path d="M328.584,397.305c-0.098,-1.022 -0.728,-1.582 -1.75,-1.582c-1.414,0 -2.114,1.162 -2.254,3.556c0.546,-0.7 1.302,-1.078 2.282,-1.078c1.764,0 3.066,1.232 3.066,3.234c0,1.89 -1.274,3.248 -3.248,3.248c-2.226,0 -3.472,-1.596 -3.472,-4.592c0,-3.584 1.372,-5.516 3.626,-5.516c1.82,0 2.884,1.008 2.996,2.73l-1.246,0ZM326.68,403.591c1.134,0 1.904,-0.854 1.904,-2.156c0,-1.302 -0.77,-2.086 -1.862,-2.086c-1.246,0 -2.002,0.784 -2.002,2.086c0,1.33 0.756,2.156 1.96,2.156Z" style="fill:#000;fill-rule:nonzero;"/><path d="M409.916,388.584l0,-4.5" style="fill:none;stroke-width:0.5px;stroke:#000;"/><path d="M409.916,36.417l0,4.417" style="fill:none;stroke-width:0.5px;stroke:#000;"/><path d="M400.768,399.503c0,-3.206 1.204,-4.928 3.374,-4.928c2.226,0 3.374,1.75 3.374,5.068c0,3.346 -1.148,5.04 -3.374,5.04c-2.226,0 -3.374,-1.736 -3.374,-5.18ZM404.142,395.765c-1.358,0 -2.016,1.19 -2.016,3.668c0,2.744 0.518,4.116 2.016,4.116c1.47,0 2.016,-1.246 2.016,-3.906c0,-2.618 -0.546,-3.878 -2.016,-3.878Z" style="fill:#000;fill-rule:nonzero;"/><rect x="409.252" y="402.933" width="1.456" height="1.484" style="fill:#000;fill-rule:nonzero;"/><path d="M417.54,399.153c1.064,0.42 1.624,1.26 1.624,2.464c0,1.82 -1.232,3.066 -3.36,3.066c-2.128,0 -3.346,-1.246 -3.346,-3.066c0,-1.204 0.546,-2.044 1.61,-2.464c-0.882,-0.392 -1.288,-1.064 -1.288,-2.044c0,-1.456 1.176,-2.534 3.024,-2.534c1.848,0 3.024,1.078 3.024,2.534c0,0.98 -0.434,1.652 -1.288,2.044ZM415.804,395.723c-1.036,0 -1.694,0.56 -1.694,1.512c0,0.896 0.658,1.526 1.694,1.526c1.036,0 1.708,-0.63 1.708,-1.526c0,-0.952 -0.644,-1.512 -1.708,-1.512ZM415.804,399.783c-1.246,0 -2.016,0.7 -2.016,1.82c0,1.176 0.77,1.932 2.016,1.932c1.246,0 1.988,-0.756 1.988,-1.932c0,-1.12 -0.742,-1.82 -1.988,-1.82Z" style="fill:#000;fill-rule:nonzero;"/><path d="M499.25,388.584l0,-4.5" style="fill:none;stroke-width:0.5px;stroke:#000;"/><path d="M499.25,36.417l0,4.417" style="fill:none;stroke-width:0.5px;stroke:#000;"/><path d="M499.14,397.473l-2.31,0l0,-1.008c1.652,0 2.45,-0.532 2.632,-1.89l0.98,0l0,9.842l-1.302,0l0,-6.944Z" style="fill:#000;fill-rule:nonzero;"/><path d="M52.916,388.584l4.417,0" style="fill:none;stroke-width:0.5px;stroke:#000;"/><path d="M499.25,388.584l-4.5,0" style="fill:none;stroke-width:0.5px;stroke:#000;"/><path d="M42.768,388.836c0,-3.206 1.204,-4.928 3.374,-4.928c2.226,0 3.374,1.75 3.374,5.068c0,3.346 -1.148,5.04 -3.374,5.04c-2.226,0 -3.374,-1.736 -3.374,-5.18ZM46.142,385.098c-1.358,0 -2.016,1.19 -2.016,3.668c0,2.744 0.518,4.116 2.016,4.116c1.47,0 2.016,-1.246 2.016,-3.906c0,-2.618 -0.546,-3.878 -2.016,-3.878Z" style="fill:#000;fill-rule:nonzero;"/><path d="M52.916,353.334l4.417,0" style="fill:none;stroke-width:0.5px;stroke:#000;"/><path d="M499.25,353.334l-4.5,0" style="fill:none;stroke-width:0.5px;stroke:#000;"/><path d="M23.351,353.586c0,-3.206 1.204,-4.928 3.374,-4.928c2.226,0 3.374,1.75 3.374,5.068c0,3.346 -1.148,5.04 -3.374,5.04c-2.226,0 -3.374,-1.736 -3.374,-5.18ZM26.725,349.848c-1.358,0 -2.016,1.19 -2.016,3.668c0,2.744 0.518,4.116 2.016,4.116c1.47,0 2.016,-1.246 2.016,-3.906c0,-2.618 -0.546,-3.878 -2.016,-3.878Z" style="fill:#000;fill-rule:nonzero;"/><rect x="31.835" y="357.016" width="1.456" height="1.484" style="fill:#000;fill-rule:nonzero;"/><path d="M35.027,353.586c0,-3.206 1.204,-4.928 3.374,-4.928c2.226,0 3.374,1.75 3.374,5.068c0,3.346 -1.148,5.04 -3.374,5.04c-2.226,0 -3.374,-1.736 -3.374,-5.18ZM38.401,349.848c-1.358,0 -2.016,1.19 -2.016,3.668c0,2.744 0.518,4.116 2.016,4.116c1.47,0 2.016,-1.246 2.016,-3.906c0,-2.618 -0.546,-3.878 -2.016,-3.878Z" style="fill:#000;fill-rule:nonzero;"/><path d="M44.029,355.938c0.126,1.008 0.896,1.61 1.946,1.61c1.302,0 2.142,-0.882 2.142,-2.17c0,-1.316 -0.826,-2.212 -2.142,-2.212c-0.756,0 -1.4,0.336 -1.862,0.91l-1.106,0l0.77,-5.208l5.18,0l0,1.162l-4.242,0l-0.392,2.674c0.462,-0.448 1.134,-0.658 1.848,-0.658c2.002,0 3.318,1.302 3.318,3.262c0,2.058 -1.414,3.458 -3.486,3.458c-1.862,0 -3.136,-1.148 -3.262,-2.828l1.288,0Z" style="fill:#000;fill-rule:nonzero;"/><path d="M52.916,318.084l4.417,0" style="fill:none;stroke-width:0.5px;stroke:#000;"/><path d="M499.25,318.084l-4.5,0" style="fill:none;stroke-width:0.5px;stroke:#000;"/><path d="M31.101,318.336c0,-3.206 1.204,-4.928 3.374,-4.928c2.226,0 3.374,1.75 3.374,5.068c0,3.346 -1.148,5.04 -3.374,5.04c-2.226,0 -3.374,-1.736 -3.374,-5.18ZM34.475,314.598c-1.358,0 -2.016,1.19 -2.016,3.668c0,2.744 0.518,4.116 2.016,4.116c1.47,0 2.016,-1.246 2.016,-3.906c0,-2.618 -0.546,-3.878 -2.016,-3.878Z" style="fill:#000;fill-rule:nonzero;"/><rect x="39.585" y="321.766" width="1.456" height="1.484" style="fill:#000;fill-rule:nonzero;"/><path d="M45.983,316.306l-2.31,0l0,-1.008c1.652,0 2.45,-0.532 2.632,-1.89l0.98,0l0,9.842l-1.302,0l0,-6.944Z" style="fill:#000;fill-rule:nonzero;"/><path d="M52.916,282.917l4.417,0" style="fill:none;stroke-width:0.5px;stroke:#000;"/><path d="M499.25,282.917l-4.5,0" style="fill:none;stroke-width:0.5px;stroke:#000;"/><path d="M23.351,283.17c0,-3.206 1.204,-4.928 3.374,-4.928c2.226,0 3.374,1.75 3.374,5.068c0,3.346 -1.148,5.04 -3.374,5.04c-2.226,0 -3.374,-1.736 -3.374,-5.18ZM26.725,279.432c-1.358,0 -2.016,1.19 -2.016,3.668c0,2.744 0.518,4.116 2.016,4.116c1.47,0 2.016,-1.246 2.016,-3.906c0,-2.618 -0.546,-3.878 -2.016,-3.878Z" style="fill:#000;fill-rule:nonzero;"/><rect x="31.835" y="286.6" width="1.456" height="1.484" style="fill:#000;fill-rule:nonzero;"/><path d="M38.233,281.14l-2.31,0l0,-1.008c1.652,0 2.45,-0.532 2.632,-1.89l0.98,0l0,9.842l-1.302,0l0,-6.944Z" style="fill:#000;fill-rule:nonzero;"/><path d="M44.029,285.522c0.126,1.008 0.896,1.61 1.946,1.61c1.302,0 2.142,-0.882 2.142,-2.17c0,-1.316 -0.826,-2.212 -2.142,-2.212c-0.756,0 -1.4,0.336 -1.862,0.91l-1.106,0l0.77,-5.208l5.18,0l0,1.162l-4.242,0l-0.392,2.674c0.462,-0.448 1.134,-0.658 1.848,-0.658c2.002,0 3.318,1.302 3.318,3.262c0,2.058 -1.414,3.458 -3.486,3.458c-1.862,0 -3.136,-1.148 -3.262,-2.828l1.288,0Z" style="fill:#000;fill-rule:nonzero;"/><path d="M52.916,247.667l4.417,0" style="fill:none;stroke-width:0.5px;stroke:#000;"/><path d="M499.25,247.667l-4.5,0" style="fill:none;stroke-width:0.5px;stroke:#000;"/><path d="M31.101,247.92c0,-3.206 1.204,-4.928 3.374,-4.928c2.226,0 3.374,1.75 3.374,5.068c0,3.346 -1.148,5.04 -3.374,5.04c-2.226,0 -3.374,-1.736 -3.374,-5.18ZM34.475,244.182c-1.358,0 -2.016,1.19 -2.016,3.668c0,2.744 0.518,4.116 2.016,4.116c1.47,0 2.016,-1.246 2.016,-3.906c0,-2.618 -0.546,-3.878 -2.016,-3.878Z" style="fill:#000;fill-rule:nonzero;"/><rect x="39.585" y="251.35" width="1.456" height="1.484" style="fill:#000;fill-rule:nonzero;"/><path d="M45.745,248.466l0.826,-0.462c0.98,-0.532 1.456,-1.19 1.456,-2.1c0,-1.022 -0.756,-1.722 -1.988,-1.722c-1.162,0 -1.904,0.812 -1.904,2.254l0,0.126l-1.288,0l0,-0.21c0,-2.1 1.288,-3.36 3.262,-3.36c1.932,0 3.248,1.19 3.248,2.94c0,1.33 -0.686,2.324 -2.1,3.066l-0.868,0.42c-1.26,0.672 -2.072,1.26 -2.352,2.212l5.32,0l0,1.204l-6.734,0l0,-0.042c0,-2.114 1.022,-3.206 3.122,-4.326Z" style="fill:#000;fill-rule:nonzero;"/><path d="M52.916,212.5l4.417,0" style="fill:none;stroke-width:0.5px;stroke:#000;"/><path d="M499.25,212.5l-4.5,0" style="fill:none;stroke-width:0.5px;stroke:#000;"/><path d="M23.351,212.753c0,-3.206 1.204,-4.928 3.374,-4.928c2.226,0 3.374,1.75 3.374,5.068c0,3.346 -1.148,5.04 -3.374,5.04c-2.226,0 -3.374,-1.736 -3.374,-5.18ZM26.725,209.015c-1.358,0 -2.016,1.19 -2.016,3.668c0,2.744 0.518,4.116 2.016,4.116c1.47,0 2.016,-1.246 2.016,-3.906c0,-2.618 -0.546,-3.878 -2.016,-3.878Z" style="fill:#000;fill-rule:nonzero;"/><rect x="31.835" y="216.183" width="1.456" height="1.484" style="fill:#000;fill-rule:nonzero;"/><path d="M37.995,213.299l0.826,-0.462c0.98,-0.532 1.456,-1.19 1.456,-2.1c0,-1.022 -0.756,-1.722 -1.988,-1.722c-1.162,0 -1.904,0.812 -1.904,2.254l0,0.126l-1.288,0l0,-0.21c0,-2.1 1.288,-3.36 3.262,-3.36c1.932,0 3.248,1.19 3.248,2.94c0,1.33 -0.686,2.324 -2.1,3.066l-0.868,0.42c-1.26,0.672 -2.072,1.26 -2.352,2.212l5.32,0l0,1.204l-6.734,0l0,-0.042c0,-2.114 1.022,-3.206 3.122,-4.326Z" style="fill:#000;fill-rule:nonzero;"/><path d="M44.029,215.105c0.126,1.008 0.896,1.61 1.946,1.61c1.302,0 2.142,-0.882 2.142,-2.17c0,-1.316 -0.826,-2.212 -2.142,-2.212c-0.756,0 -1.4,0.336 -1.862,0.91l-1.106,0l0.77,-5.208l5.18,0l0,1.162l-4.242,0l-0.392,2.674c0.462,-0.448 1.134,-0.658 1.848,-0.658c2.002,0 3.318,1.302 3.318,3.262c0,2.058 -1.414,3.458 -3.486,3.458c-1.862,0 -3.136,-1.148 -3.262,-2.828l1.288,0Z" style="fill:#000;fill-rule:nonzero;"/><path d="M52.916,177.25l4.417,0" style="fill:none;stroke-width:0.5px;stroke:#000;"/><path d="M499.25,177.25l-4.5,0" style="fill:none;stroke-width:0.5px;stroke:#000;"/><path d="M31.101,177.503c0,-3.206 1.204,-4.928 3.374,-4.928c2.226,0 3.374,1.75 3.374,5.068c0,3.346 -1.148,5.04 -3.374,5.04c-2.226,0 -3.374,-1.736 -3.374,-5.18ZM34.475,173.765c-1.358,0 -2.016,1.19 -2.016,3.668c0,2.744 0.518,4.116 2.016,4.116c1.47,0 2.016,-1.246 2.016,-3.906c0,-2.618 -0.546,-3.878 -2.016,-3.878Z" style="fill:#000;fill-rule:nonzero;"/><rect x="39.585" y="180.933" width="1.456" height="1.484" style="fill:#000;fill-rule:nonzero;"/><path d="M44.023,179.365c0.028,1.372 0.77,2.17 2.1,2.17c1.274,0 2.072,-0.756 2.072,-1.932c0,-1.092 -0.728,-1.75 -2.072,-1.75c-0.14,0 -0.378,0 -0.7,0.056l0,-1.148c0.112,0 0.168,0.028 0.238,0.028l0.322,0c1.232,0 1.862,-0.462 1.862,-1.512c0,-0.994 -0.602,-1.54 -1.792,-1.54c-1.162,0 -1.834,0.728 -1.834,2.03l0,0.042l-1.26,0l0,-0.07c0,-1.932 1.232,-3.164 3.094,-3.164c2.016,0 3.164,1.008 3.164,2.66c0,0.924 -0.448,1.596 -1.26,1.946c1.05,0.392 1.61,1.204 1.61,2.422c0,1.834 -1.358,3.08 -3.514,3.08c-2.03,0 -3.318,-1.274 -3.318,-3.248l0,-0.07l1.288,0Z" style="fill:#000;fill-rule:nonzero;"/><path d="M52.916,142l4.417,0" style="fill:none;stroke-width:0.5px;stroke:#000;"/><path d="M499.25,142l-4.5,0" style="fill:none;stroke-width:0.5px;stroke:#000;"/><path d="M23.351,142.253c0,-3.206 1.204,-4.928 3.374,-4.928c2.226,0 3.374,1.75 3.374,5.068c0,3.346 -1.148,5.04 -3.374,5.04c-2.226,0 -3.374,-1.736 -3.374,-5.18ZM26.725,138.515c-1.358,0 -2.016,1.19 -2.016,3.668c0,2.744 0.518,4.116 2.016,4.116c1.47,0 2.016,-1.246 2.016,-3.906c0,-2.618 -0.546,-3.878 -2.016,-3.878Z" style="fill:#000;fill-rule:nonzero;"/><rect x="31.835" y="145.683" width="1.456" height="1.484" style="fill:#000;fill-rule:nonzero;"/><path d="M36.273,144.115c0.028,1.372 0.77,2.17 2.1,2.17c1.274,0 2.072,-0.756 2.072,-1.932c0,-1.092 -0.728,-1.75 -2.072,-1.75c-0.14,0 -0.378,0 -0.7,0.056l0,-1.148c0.112,0 0.168,0.028 0.238,0.028l0.322,0c1.232,0 1.862,-0.462 1.862,-1.512c0,-0.994 -0.602,-1.54 -1.792,-1.54c-1.162,0 -1.834,0.728 -1.834,2.03l0,0.042l-1.26,0l0,-0.07c0,-1.932 1.232,-3.164 3.094,-3.164c2.016,0 3.164,1.008 3.164,2.66c0,0.924 -0.448,1.596 -1.26,1.946c1.05,0.392 1.61,1.204 1.61,2.422c0,1.834 -1.358,3.08 -3.514,3.08c-2.03,0 -3.318,-1.274 -3.318,-3.248l0,-0.07l1.288,0Z" style="fill:#000;fill-rule:nonzero;"/><path d="M44.029,144.605c0.126,1.008 0.896,1.61 1.946,1.61c1.302,0 2.142,-0.882 2.142,-2.17c0,-1.316 -0.826,-2.212 -2.142,-2.212c-0.756,0 -1.4,0.336 -1.862,0.91l-1.106,0l0.77,-5.208l5.18,0l0,1.162l-4.242,0l-0.392,2.674c0.462,-0.448 1.134,-0.658 1.848,-0.658c2.002,0 3.318,1.302 3.318,3.262c0,2.058 -1.414,3.458 -3.486,3.458c-1.862,0 -3.136,-1.148 -3.262,-2.828l1.288,0Z" style="fill:#000;fill-rule:nonzero;"/><path d="M52.916,106.834l4.417,0" style="fill:none;stroke-width:0.5px;stroke:#000;"/><path d="M499.25,106.834l-4.5,0" style="fill:none;stroke-width:0.5px;stroke:#000;"/><path d="M31.101,107.086c0,-3.206 1.204,-4.928 3.374,-4.928c2.226,0 3.374,1.75 3.374,5.068c0,3.346 -1.148,5.04 -3.374,5.04c-2.226,0 -3.374,-1.736 -3.374,-5.18ZM34.475,103.348c-1.358,0 -2.016,1.19 -2.016,3.668c0,2.744 0.518,4.116 2.016,4.116c1.47,0 2.016,-1.246 2.016,-3.906c0,-2.618 -0.546,-3.878 -2.016,-3.878Z" style="fill:#000;fill-rule:nonzero;"/><rect x="39.585" y="110.516" width="1.456" height="1.484" style="fill:#000;fill-rule:nonzero;"/><path d="M46.907,109.508l-4.298,0l0,-1.274l4.298,-6.076l1.246,0l0,6.202l1.428,0l0,1.148l-1.428,0l0,2.492l-1.246,0l0,-2.492ZM46.907,103.852l-3.094,4.508l3.094,0l0,-4.508Z" style="fill:#000;fill-rule:nonzero;"/><path d="M52.916,71.584l4.417,0" style="fill:none;stroke-width:0.5px;stroke:#000;"/><path d="M499.25,71.584l-4.5,0" style="fill:none;stroke-width:0.5px;stroke:#000;"/><path d="M23.351,71.836c0,-3.206 1.204,-4.928 3.374,-4.928c2.226,0 3.374,1.75 3.374,5.068c0,3.346 -1.148,5.04 -3.374,5.04c-2.226,0 -3.374,-1.736 -3.374,-5.18ZM26.725,68.098c-1.358,0 -2.016,1.19 -2.016,3.668c0,2.744 0.518,4.116 2.016,4.116c1.47,0 2.016,-1.246 2.016,-3.906c0,-2.618 -0.546,-3.878 -2.016,-3.878Z" style="fill:#000;fill-rule:nonzero;"/><rect x="31.835" y="75.266" width="1.456" height="1.484" style="fill:#000;fill-rule:nonzero;"/><path d="M39.157,74.258l-4.298,0l0,-1.274l4.298,-6.076l1.246,0l0,6.202l1.428,0l0,1.148l-1.428,0l0,2.492l-1.246,0l0,-2.492ZM39.157,68.602l-3.094,4.508l3.094,0l0,-4.508Z" style="fill:#000;fill-rule:nonzero;"/><path d="M44.029,74.188c0.126,1.008 0.896,1.61 1.946,1.61c1.302,0 2.142,-0.882 2.142,-2.17c0,-1.316 -0.826,-2.212 -2.142,-2.212c-0.756,0 -1.4,0.336 -1.862,0.91l-1.106,0l0.77,-5.208l5.18,0l0,1.162l-4.242,0l-0.392,2.674c0.462,-0.448 1.134,-0.658 1.848,-0.658c2.002,0 3.318,1.302 3.318,3.262c0,2.058 -1.414,3.458 -3.486,3.458c-1.862,0 -3.136,-1.148 -3.262,-2.828l1.288,0Z" style="fill:#000;fill-rule:nonzero;"/><path d="M52.916,36.417l4.417,0" style="fill:none;stroke-width:0.5px;stroke:#000;"/><path d="M499.25,36.417l-4.5,0" style="fill:none;stroke-width:0.5px;stroke:#000;"/><path d="M31.101,36.67c0,-3.206 1.204,-4.928 3.374,-4.928c2.226,0 3.374,1.75 3.374,5.068c0,3.346 -1.148,5.04 -3.374,5.04c-2.226,0 -3.374,-1.736 -3.374,-5.18ZM34.475,32.932c-1.358,0 -2.016,1.19 -2.016,3.668c0,2.744 0.518,4.116 2.016,4.116c1.47,0 2.016,-1.246 2.016,-3.906c0,-2.618 -0.546,-3.878 -2.016,-3.878Z" style="fill:#000;fill-rule:nonzero;"/><rect x="39.585" y="40.1" width="1.456" height="1.484" style="fill:#000;fill-rule:nonzero;"/><path d="M43.995,39.022c0.126,1.008 0.896,1.61 1.946,1.61c1.302,0 2.142,-0.882 2.142,-2.17c0,-1.316 -0.826,-2.212 -2.142,-2.212c-0.756,0 -1.4,0.336 -1.862,0.91l-1.106,0l0.77,-5.208l5.18,0l0,1.162l-4.242,0l-0.392,2.674c0.462,-0.448 1.134,-0.658 1.848,-0.658c2.002,0 3.318,1.302 3.318,3.262c0,2.058 -1.414,3.458 -3.486,3.458c-1.862,0 -3.136,-1.148 -3.262,-2.828l1.288,0Z" style="fill:#000;fill-rule:nonzero;"/><path d="M52.916,388.584l446.334,0" style="fill:none;stroke-width:0.5px;stroke:#000;"/><path d="M52.916,36.417l446.334,0" style="fill:none;stroke-width:0.5px;stroke:#000;"/><path d="M52.916,388.584l0,-352.167" style="fill:none;stroke-width:0.5px;stroke:#000;"/><path d="M499.25,388.584l0,-352.167" style="fill:none;stroke-width:0.5px;stroke:#000;"/><rect x="60.083" y="295.25" width="9.5" height="9.5" style="fill:none;stroke-width:0.5px;stroke-linejoin:miter;stroke:#f00;"/><rect x="66.416" y="250.5" width="9.5" height="9.5" style="fill:none;stroke-width:0.5px;stroke-linejoin:miter;stroke:#f00;"/><rect x="72.833" y="206.834" width="9.5" height="9.5" style="fill:none;stroke-width:0.5px;stroke-linejoin:miter;stroke:#f00;"/><rect x="79.749" y="164.25" width="9.5" height="9.5" style="fill:none;stroke-width:0.5px;stroke-linejoin:miter;stroke:#f00;"/><rect x="89.499" y="119.834" width="9.5" height="9.5" style="fill:none;stroke-width:0.5px;stroke-linejoin:miter;stroke:#f00;"/><rect x="157.999" y="84.25" width="9.5" height="9.5" style="fill:none;stroke-width:0.5px;stroke-linejoin:miter;stroke:#f00;"/><rect x="199.999" y="83.334" width="9.5" height="9.5" style="fill:none;stroke-width:0.5px;stroke-linejoin:miter;stroke:#f00;"/><rect x="201.416" y="83.5" width="9.5" height="9.5" style="fill:none;stroke-width:0.5px;stroke-linejoin:miter;stroke:#f00;"/><rect x="201.749" y="83.334" width="9.5" height="9.5" style="fill:none;stroke-width:0.5px;stroke-linejoin:miter;stroke:#f00;"/><rect x="201.249" y="83.584" width="9.5" height="9.5" style="fill:none;stroke-width:0.5px;stroke-linejoin:miter;stroke:#f00;"/><rect x="201.583" y="83.584" width="9.5" height="9.5" style="fill:none;stroke-width:0.5px;stroke-linejoin:miter;stroke:#f00;"/><rect x="201.999" y="83.25" width="9.5" height="9.5" style="fill:none;stroke-width:0.5px;stroke-linejoin:miter;stroke:#f00;"/><rect x="269.5" y="116.584" width="9.5" height="9.5" style="fill:none;stroke-width:0.5px;stroke-linejoin:miter;stroke:#f00;"/><rect x="303.75" y="142.084" width="9.5" height="9.5" style="fill:none;stroke-width:0.5px;stroke-linejoin:miter;stroke:#f00;"/><rect x="309.75" y="153.5" width="9.5" height="9.5" style="fill:none;stroke-width:0.5px;stroke-linejoin:miter;stroke:#f00;"/><rect x="334.083" y="204.917" width="9.5" height="9.5" style="fill:none;stroke-width:0.5px;stroke-linejoin:miter;stroke:#f00;"/><rect x="357.999" y="259.667" width="9.5" height="9.5" style="fill:none;stroke-width:0.5px;stroke-linejoin:miter;stroke:#f00;"/><rect x="380.749" y="318.834" width="9.5" height="9.5" style="fill:none;stroke-width:0.5px;stroke-linejoin:miter;stroke:#f00;"/><path d="M63.333,295.334l8.333,8.333" style="fill:none;stroke-width:0.5px;stroke-linejoin:miter;stroke:#000;"/><path d="M71.666,295.334l-8.333,8.333" style="fill:none;stroke-width:0.5px;stroke-linejoin:miter;stroke:#000;"/><path d="M71.333,251.917l8.333,8.334" style="fill:none;stroke-width:0.5px;stroke-linejoin:miter;stroke:#000;"/><path d="M79.666,251.917l-8.333,8.334" style="fill:none;stroke-width:0.5px;stroke-linejoin:miter;stroke:#000;"/><path d="M79.5,208.917l8.333,8.333" style="fill:none;stroke-width:0.5px;stroke-linejoin:miter;stroke:#000;"/><path d="M87.833,208.917l-8.333,8.333" style="fill:none;stroke-width:0.5px;stroke-linejoin:miter;stroke:#000;"/><path d="M90,164.75l8.333,8.334" style="fill:none;stroke-width:0.5px;stroke-linejoin:miter;stroke:#000;"/><path d="M98.333,164.75l-8.333,8.334" style="fill:none;stroke-width:0.5px;stroke-linejoin:miter;stroke:#000;"/><path d="M111.666,123.167l8.334,8.333" style="fill:none;stroke-width:0.5px;stroke-linejoin:miter;stroke:#000;"/><path d="M120,123.167l-8.334,8.333" style="fill:none;stroke-width:0.5px;stroke-linejoin:miter;stroke:#000;"/><path d="M132.166,113l8.334,8.334" style="fill:none;stroke-width:0.5px;stroke-linejoin:miter;stroke:#000;"/><path d="M140.5,113l-8.334,8.334" style="fill:none;stroke-width:0.5px;stroke-linejoin:miter;stroke:#000;"/><path d="M194.416,158.084l8.334,8.333" style="fill:none;stroke-width:0.5px;stroke-linejoin:miter;stroke:#000;"/><path d="M202.75,158.084l-8.334,8.333" style="fill:none;stroke-width:0.5px;stroke-linejoin:miter;stroke:#000;"/><path d="M214,192.75l8.333,8.334" style="fill:none;stroke-width:0.5px;stroke-linejoin:miter;stroke:#000;"/><path d="M222.333,192.75l-8.333,8.334" style="fill:none;stroke-width:0.5px;stroke-linejoin:miter;stroke:#000;"/><path d="M228.416,209.917l8.334,8.333" style="fill:none;stroke-width:0.5px;stroke-linejoin:miter;stroke:#000;"/><path d="M236.75,209.917l-8.334,8.333" style="fill:none;stroke-width:0.5px;stroke-linejoin:miter;stroke:#000;"/><path d="M233.833,209.584l8.333,8.333" style="fill:none;stroke-width:0.5px;stroke-linejoin:miter;stroke:#000;"/><path d="M242.166,209.584l-8.333,8.333" style="fill:none;stroke-width:0.5px;stroke-linejoin:miter;stroke:#000;"/><path d="M248,220.5l8.333,8.334" style="fill:none;stroke-width:0.5px;stroke-linejoin:miter;stroke:#000;"/><path d="M256.333,220.5l-8.333,8.334" style="fill:none;stroke-width:0.5px;stroke-linejoin:miter;stroke:#000;"/><path d="M272.25,228l8.333,8.334" style="fill:none;stroke-width:0.5px;stroke-linejoin:miter;stroke:#000;"/><path d="M280.583,228l-8.333,8.334" style="fill:none;stroke-width:0.5px;stroke-linejoin:miter;stroke:#000;"/><path d="M307.583,282.917l8.333,8.333" style="fill:none;stroke-width:0.5px;stroke-linejoin:miter;stroke:#000;"/><path d="M315.916,282.917l-8.333,8.333" style="fill:none;stroke-width:0.5px;stroke-linejoin:miter;stroke:#000;"/><path d="M330,321.667l8.333,8.333" style="fill:none;stroke-width:0.5px;stroke-linejoin:miter;stroke:#000;"/><path d="M338.333,321.667l-8.333,8.333" style="fill:none;stroke-width:0.5px;stroke-linejoin:miter;stroke:#000;"/><path d="M60,305.75l13.833,0l-6.917,-11.916l-6.917,11.916l0.001,0Z" style="fill:none;stroke-width:0.5px;stroke-linejoin:miter;stroke:#00f;"/><path d="M67.916,259.25l13.834,0l-6.917,-11.916l-6.917,11.916Z" style="fill:none;stroke-width:0.5px;stroke-linejoin:miter;stroke:#00f;"/><path d="M76.5,216l13.833,0l-6.917,-11.916l-6.917,11.916l0.001,0Z" style="fill:none;stroke-width:0.5px;stroke-linejoin:miter;stroke:#00f;"/><path d="M91.666,171.584l13.834,0l-6.917,-11.917l-6.917,11.917Z" style="fill:none;stroke-width:0.5px;stroke-linejoin:miter;stroke:#00f;"/><path d="M106.75,129.5l13.833,0l-6.917,-11.916l-6.916,11.916Z" style="fill:none;stroke-width:0.5px;stroke-linejoin:miter;stroke:#00f;"/><path d="M115,121l13.833,0l-6.917,-11.916l-6.917,11.916l0.001,0Z" style="fill:none;stroke-width:0.5px;stroke-linejoin:miter;stroke:#00f;"/><path d="M156.666,151.917l13.833,0l-6.916,-11.917l-6.917,11.917Z" style="fill:none;stroke-width:0.5px;stroke-linejoin:miter;stroke:#00f;"/><path d="M219.583,190.167l13.833,0l-6.917,-11.917l-6.916,11.917Z" style="fill:none;stroke-width:0.5px;stroke-linejoin:miter;stroke:#00f;"/><path d="M234.75,203.25l13.833,0l-6.917,-11.916l-6.916,11.916Z" style="fill:none;stroke-width:0.5px;stroke-linejoin:miter;stroke:#00f;"/><path d="M245.833,210.667l13.833,0l-6.916,-11.917l-6.917,11.917Z" style="fill:none;stroke-width:0.5px;stroke-linejoin:miter;stroke:#00f;"/><path d="M262.583,217.917l13.833,0l-6.916,-11.917l-6.917,11.917Z" style="fill:none;stroke-width:0.5px;stroke-linejoin:miter;stroke:#00f;"/><path d="M309.916,271.084l13.834,0l-6.917,-11.917l-6.917,11.917Z" style="fill:none;stroke-width:0.5px;stroke-linejoin:miter;stroke:#00f;"/><path d="M354.25,327.417l13.833,0l-6.917,-11.917l-6.917,11.917l0.001,0Z" style="fill:none;stroke-width:0.5px;stroke-linejoin:miter;stroke:#00f;"/></g></g><g><path d="M64.833,299.417l0,1.167" style="fill:none;stroke-width:0.6px;stroke-linejoin:miter;stroke:#f00;"/><path d="M64.583,299.417l0.5,0" style="fill:none;stroke-width:0.6px;stroke-linejoin:miter;stroke:#f00;"/><path d="M64.583,300.584l0.5,0" style="fill:none;stroke-width:0.6px;stroke-linejoin:miter;stroke:#f00;"/><path d="M71.166,254.75l0,1" style="fill:none;stroke-width:0.6px;stroke-linejoin:miter;stroke:#f00;"/><path d="M70.833,254.75l0.583,0" style="fill:none;stroke-width:0.6px;stroke-linejoin:miter;stroke:#f00;"/><path d="M70.833,255.75l0.583,0" style="fill:none;stroke-width:0.6px;stroke-linejoin:miter;stroke:#f00;"/><path d="M77.583,210.917l0,1.333" style="fill:none;stroke-width:0.6px;stroke-linejoin:miter;stroke:#f00;"/><path d="M77.25,210.917l0.583,0" style="fill:none;stroke-width:0.6px;stroke-linejoin:miter;stroke:#f00;"/><path d="M77.25,212.25l0.583,0" style="fill:none;stroke-width:0.6px;stroke-linejoin:miter;stroke:#f00;"/><path d="M84.5,168.25l-0.001,1.5" style="fill:none;stroke-width:0.6px;stroke-linejoin:miter;stroke:#f00;"/><path d="M84.25,168.25l0.499,0" style="fill:none;stroke-width:0.6px;stroke-linejoin:miter;stroke:#f00;"/><path d="M84.25,169.75l0.499,0" style="fill:none;stroke-width:0.6px;stroke-linejoin:miter;stroke:#f00;"/><path d="M94.25,123.75l-0.001,1.667" style="fill:none;stroke-width:0.6px;stroke-linejoin:miter;stroke:#f00;"/><path d="M93.916,123.75l0.584,0" style="fill:none;stroke-width:0.6px;stroke-linejoin:miter;stroke:#f00;"/><path d="M93.916,125.417l0.584,0" style="fill:none;stroke-width:0.6px;stroke-linejoin:miter;stroke:#f00;"/><path d="M162.75,88.75l-0.001,0.584" style="fill:none;stroke-width:0.6px;stroke-linejoin:miter;stroke:#f00;"/><path d="M162.416,88.75l0.583,0" style="fill:none;stroke-width:0.6px;stroke-linejoin:miter;stroke:#f00;"/><path d="M162.416,89.334l0.583,0" style="fill:none;stroke-width:0.6px;stroke-linejoin:miter;stroke:#f00;"/><path d="M204.75,87.667l-0.001,0.75" style="fill:none;stroke-width:0.6px;stroke-linejoin:miter;stroke:#f00;"/><path d="M204.416,87.667l0.584,0" style="fill:none;stroke-width:0.6px;stroke-linejoin:miter;stroke:#f00;"/><path d="M204.416,88.417l0.584,0" style="fill:none;stroke-width:0.6px;stroke-linejoin:miter;stroke:#f00;"/><path d="M206.166,87.667l0,1.167" style="fill:none;stroke-width:0.6px;stroke-linejoin:miter;stroke:#f00;"/><path d="M205.916,87.667l0.5,0" style="fill:none;stroke-width:0.6px;stroke-linejoin:miter;stroke:#f00;"/><path d="M205.916,88.834l0.5,0" style="fill:none;stroke-width:0.6px;stroke-linejoin:miter;stroke:#f00;"/><path d="M206.5,87.667l-0.001,0.75" style="fill:none;stroke-width:0.6px;stroke-linejoin:miter;stroke:#f00;"/><path d="M206.166,87.667l0.584,0" style="fill:none;stroke-width:0.6px;stroke-linejoin:miter;stroke:#f00;"/><path d="M206.166,88.417l0.584,0" style="fill:none;stroke-width:0.6px;stroke-linejoin:miter;stroke:#f00;"/><path d="M206,88l-0.001,0.584" style="fill:none;stroke-width:0.6px;stroke-linejoin:miter;stroke:#f00;"/><path d="M205.666,88l0.584,0" style="fill:none;stroke-width:0.6px;stroke-linejoin:miter;stroke:#f00;"/><path d="M205.666,88.584l0.584,0" style="fill:none;stroke-width:0.6px;stroke-linejoin:miter;stroke:#f00;"/><path d="M206.333,87.917l0,0.833" style="fill:none;stroke-width:0.6px;stroke-linejoin:miter;stroke:#f00;"/><path d="M206.083,87.917l0.583,0" style="fill:none;stroke-width:0.6px;stroke-linejoin:miter;stroke:#f00;"/><path d="M206.083,88.75l0.583,0" style="fill:none;stroke-width:0.6px;stroke-linejoin:miter;stroke:#f00;"/><path d="M206.75,87.584l-0.001,0.833" style="fill:none;stroke-width:0.6px;stroke-linejoin:miter;stroke:#f00;"/><path d="M206.5,87.584l0.499,0" style="fill:none;stroke-width:0.6px;stroke-linejoin:miter;stroke:#f00;"/><path d="M206.5,88.417l0.499,0" style="fill:none;stroke-width:0.6px;stroke-linejoin:miter;stroke:#f00;"/><path d="M274.25,119.75l0,3.084" style="fill:none;stroke-width:0.6px;stroke-linejoin:miter;stroke:#f00;"/><path d="M274,119.75l0.5,0" style="fill:none;stroke-width:0.6px;stroke-linejoin:miter;stroke:#f00;"/><path d="M274,122.834l0.5,0" style="fill:none;stroke-width:0.6px;stroke-linejoin:miter;stroke:#f00;"/><path d="M308.5,145.667l0,2.25" style="fill:none;stroke-width:0.6px;stroke-linejoin:miter;stroke:#f00;"/><path d="M308.25,145.667l0.5,0" style="fill:none;stroke-width:0.6px;stroke-linejoin:miter;stroke:#f00;"/><path d="M308.25,147.917l0.5,0" style="fill:none;stroke-width:0.6px;stroke-linejoin:miter;stroke:#f00;"/><path d="M314.5,156.75l0,2.917" style="fill:none;stroke-width:0.6px;stroke-linejoin:miter;stroke:#f00;"/><path d="M314.25,156.75l0.5,0" style="fill:none;stroke-width:0.6px;stroke-linejoin:miter;stroke:#f00;"/><path d="M314.25,159.667l0.5,0" style="fill:none;stroke-width:0.6px;stroke-linejoin:miter;stroke:#f00;"/><path d="M338.833,208.5l0,2.334" style="fill:none;stroke-width:0.6px;stroke-linejoin:miter;stroke:#f00;"/><path d="M338.583,208.5l0.5,0" style="fill:none;stroke-width:0.6px;stroke-linejoin:miter;stroke:#f00;"/><path d="M338.583,210.834l0.5,0" style="fill:none;stroke-width:0.6px;stroke-linejoin:miter;stroke:#f00;"/><path d="M362.75,263.251l-0.001,2.333" style="fill:none;stroke-width:0.6px;stroke-linejoin:miter;stroke:#f00;"/><path d="M362.5,263.251l0.499,0" style="fill:none;stroke-width:0.6px;stroke-linejoin:miter;stroke:#f00;"/><path d="M362.5,265.584l0.499,0" style="fill:none;stroke-width:0.6px;stroke-linejoin:miter;stroke:#f00;"/><path d="M385.5,322.834l-0.001,1.5" style="fill:none;stroke-width:0.6px;stroke-linejoin:miter;stroke:#f00;"/><path d="M385.25,322.834l0.583,0" style="fill:none;stroke-width:0.6px;stroke-linejoin:miter;stroke:#f00;"/><path d="M385.25,324.334l0.583,0" style="fill:none;stroke-width:0.6px;stroke-linejoin:miter;stroke:#f00;"/><path d="M64.75,300l0.166,0" style="fill:none;stroke-width:0.6px;stroke-linejoin:miter;stroke:#f00;"/><path d="M64.75,300.334l-0.001,-0.584" style="fill:none;stroke-width:0.6px;stroke-linejoin:miter;stroke:#f00;"/><path d="M64.916,300.334l0,-0.584" style="fill:none;stroke-width:0.6px;stroke-linejoin:miter;stroke:#f00;"/><path d="M71.083,255.25l0.167,0" style="fill:none;stroke-width:0.6px;stroke-linejoin:miter;stroke:#f00;"/><path d="M71.083,255.5l0,-0.5" style="fill:none;stroke-width:0.6px;stroke-linejoin:miter;stroke:#f00;"/><path d="M71.25,255.5l-0.001,-0.5" style="fill:none;stroke-width:0.6px;stroke-linejoin:miter;stroke:#f00;"/><path d="M77.416,211.584l0.25,0" style="fill:none;stroke-width:0.6px;stroke-linejoin:miter;stroke:#f00;"/><path d="M77.416,211.834l0,-0.584" style="fill:none;stroke-width:0.6px;stroke-linejoin:miter;stroke:#f00;"/><path d="M77.666,211.834l0,-0.584" style="fill:none;stroke-width:0.6px;stroke-linejoin:miter;stroke:#f00;"/><path d="M84.416,169l0.25,0" style="fill:none;stroke-width:0.6px;stroke-linejoin:miter;stroke:#f00;"/><path d="M84.416,169.334l0,-0.584" style="fill:none;stroke-width:0.6px;stroke-linejoin:miter;stroke:#f00;"/><path d="M84.666,169.334l0,-0.584" style="fill:none;stroke-width:0.6px;stroke-linejoin:miter;stroke:#f00;"/><path d="M94,124.584l0.416,0" style="fill:none;stroke-width:0.6px;stroke-linejoin:miter;stroke:#f00;"/><path d="M94,124.834l-0.001,-0.5" style="fill:none;stroke-width:0.6px;stroke-linejoin:miter;stroke:#f00;"/><path d="M94.416,124.834l0,-0.5" style="fill:none;stroke-width:0.6px;stroke-linejoin:miter;stroke:#f00;"/><path d="M161.833,89l1.75,0" style="fill:none;stroke-width:0.6px;stroke-linejoin:miter;stroke:#f00;"/><path d="M161.833,89.334l0,-0.584" style="fill:none;stroke-width:0.6px;stroke-linejoin:miter;stroke:#f00;"/><path d="M163.583,89.334l0,-0.584" style="fill:none;stroke-width:0.6px;stroke-linejoin:miter;stroke:#f00;"/><path d="M204.333,88.084l0.75,0" style="fill:none;stroke-width:0.6px;stroke-linejoin:miter;stroke:#f00;"/><path d="M204.333,88.334l0,-0.584" style="fill:none;stroke-width:0.6px;stroke-linejoin:miter;stroke:#f00;"/><path d="M205.083,88.334l0,-0.584" style="fill:none;stroke-width:0.6px;stroke-linejoin:miter;stroke:#f00;"/><path d="M205.5,88.25l1.333,0" style="fill:none;stroke-width:0.6px;stroke-linejoin:miter;stroke:#f00;"/><path d="M205.5,88.5l-0.001,-0.5" style="fill:none;stroke-width:0.6px;stroke-linejoin:miter;stroke:#f00;"/><path d="M206.833,88.5l0,-0.5" style="fill:none;stroke-width:0.6px;stroke-linejoin:miter;stroke:#f00;"/><path d="M205.916,88.084l1.084,0" style="fill:none;stroke-width:0.6px;stroke-linejoin:miter;stroke:#f00;"/><path d="M205.916,88.334l0,-0.584" style="fill:none;stroke-width:0.6px;stroke-linejoin:miter;stroke:#f00;"/><path d="M207,88.334l-0.001,-0.584" style="fill:none;stroke-width:0.6px;stroke-linejoin:miter;stroke:#f00;"/><path d="M205.333,88.334l1.25,0" style="fill:none;stroke-width:0.6px;stroke-linejoin:miter;stroke:#f00;"/><path d="M205.333,88.584l0,-0.584" style="fill:none;stroke-width:0.6px;stroke-linejoin:miter;stroke:#f00;"/><path d="M206.583,88.584l0,-0.584" style="fill:none;stroke-width:0.6px;stroke-linejoin:miter;stroke:#f00;"/><path d="M206,88.334l0.749,0" style="fill:none;stroke-width:0.6px;stroke-linejoin:miter;stroke:#f00;"/><path d="M206,88.584l-0.001,-0.584" style="fill:none;stroke-width:0.6px;stroke-linejoin:miter;stroke:#f00;"/><path d="M206.75,88.584l-0.001,-0.584" style="fill:none;stroke-width:0.6px;stroke-linejoin:miter;stroke:#f00;"/><path d="M206.166,88l1.167,0" style="fill:none;stroke-width:0.6px;stroke-linejoin:miter;stroke:#f00;"/><path d="M206.166,88.334l0,-0.584" style="fill:none;stroke-width:0.6px;stroke-linejoin:miter;stroke:#f00;"/><path d="M207.333,88.334l0,-0.584" style="fill:none;stroke-width:0.6px;stroke-linejoin:miter;stroke:#f00;"/><path d="M272.083,121.334l4.333,0" style="fill:none;stroke-width:0.6px;stroke-linejoin:miter;stroke:#f00;"/><path d="M272.083,121.584l0,-0.584" style="fill:none;stroke-width:0.6px;stroke-linejoin:miter;stroke:#f00;"/><path d="M276.416,121.584l0,-0.584" style="fill:none;stroke-width:0.6px;stroke-linejoin:miter;stroke:#f00;"/><path d="M306.666,146.834l3.667,0" style="fill:none;stroke-width:0.6px;stroke-linejoin:miter;stroke:#f00;"/><path d="M306.666,147.084l0,-0.584" style="fill:none;stroke-width:0.6px;stroke-linejoin:miter;stroke:#f00;"/><path d="M310.333,147.084l0,-0.584" style="fill:none;stroke-width:0.6px;stroke-linejoin:miter;stroke:#f00;"/><path d="M312.833,158.25l3.333,0" style="fill:none;stroke-width:0.6px;stroke-linejoin:miter;stroke:#f00;"/><path d="M312.833,158.5l0,-0.583" style="fill:none;stroke-width:0.6px;stroke-linejoin:miter;stroke:#f00;"/><path d="M316.166,158.5l0,-0.583" style="fill:none;stroke-width:0.6px;stroke-linejoin:miter;stroke:#f00;"/><path d="M337.166,209.667l3.334,0" style="fill:none;stroke-width:0.6px;stroke-linejoin:miter;stroke:#f00;"/><path d="M337.166,209.917l0,-0.583" style="fill:none;stroke-width:0.6px;stroke-linejoin:miter;stroke:#f00;"/><path d="M340.5,209.917l-0.001,-0.583" style="fill:none;stroke-width:0.6px;stroke-linejoin:miter;stroke:#f00;"/><path d="M360.916,264.417l3.667,0" style="fill:none;stroke-width:0.6px;stroke-linejoin:miter;stroke:#f00;"/><path d="M360.916,264.667l0,-0.5" style="fill:none;stroke-width:0.6px;stroke-linejoin:miter;stroke:#f00;"/><path d="M364.583,264.667l0,-0.5" style="fill:none;stroke-width:0.6px;stroke-linejoin:miter;stroke:#f00;"/><path d="M383,323.584l5.083,0" style="fill:none;stroke-width:0.6px;stroke-linejoin:miter;stroke:#f00;"/><path d="M383,323.834l-0.001,-0.584" style="fill:none;stroke-width:0.6px;stroke-linejoin:miter;stroke:#f00;"/><path d="M388.083,323.834l0,-0.584" style="fill:none;stroke-width:0.6px;stroke-linejoin:miter;stroke:#f00;"/><path d="M67.5,299.167l-0.001,0.667" style="fill:none;stroke-width:0.6px;stroke-linejoin:miter;stroke:#000;"/><path d="M67.25,299.167l0.583,0" style="fill:none;stroke-width:0.6px;stroke-linejoin:miter;stroke:#000;"/><path d="M67.25,299.834l0.583,0" style="fill:none;stroke-width:0.6px;stroke-linejoin:miter;stroke:#000;"/><path d="M75.5,255.334l-0.001,1.5" style="fill:none;stroke-width:0.6px;stroke-linejoin:miter;stroke:#000;"/><path d="M75.25,255.334l0.583,0" style="fill:none;stroke-width:0.6px;stroke-linejoin:miter;stroke:#000;"/><path d="M75.25,256.834l0.583,0" style="fill:none;stroke-width:0.6px;stroke-linejoin:miter;stroke:#000;"/><path d="M83.666,212.334l0,1.583" style="fill:none;stroke-width:0.6px;stroke-linejoin:miter;stroke:#000;"/><path d="M83.333,212.334l0.583,0" style="fill:none;stroke-width:0.6px;stroke-linejoin:miter;stroke:#000;"/><path d="M83.333,213.917l0.583,0" style="fill:none;stroke-width:0.6px;stroke-linejoin:miter;stroke:#000;"/><path d="M94.166,168l0,1.75" style="fill:none;stroke-width:0.6px;stroke-linejoin:miter;stroke:#000;"/><path d="M93.833,168l0.583,0" style="fill:none;stroke-width:0.6px;stroke-linejoin:miter;stroke:#000;"/><path d="M93.833,169.75l0.583,0" style="fill:none;stroke-width:0.6px;stroke-linejoin:miter;stroke:#000;"/><path d="M115.833,126.584l0,1.583" style="fill:none;stroke-width:0.6px;stroke-linejoin:miter;stroke:#000;"/><path d="M115.5,126.584l0.583,0" style="fill:none;stroke-width:0.6px;stroke-linejoin:miter;stroke:#000;"/><path d="M115.5,128.167l0.583,0" style="fill:none;stroke-width:0.6px;stroke-linejoin:miter;stroke:#000;"/><path d="M136.333,115.334l0,3.666" style="fill:none;stroke-width:0.6px;stroke-linejoin:miter;stroke:#000;"/><path d="M136.083,115.334l0.5,0" style="fill:none;stroke-width:0.6px;stroke-linejoin:miter;stroke:#000;"/><path d="M136.083,119l0.5,0" style="fill:none;stroke-width:0.6px;stroke-linejoin:miter;stroke:#000;"/><path d="M198.583,152.5l0,19.584" style="fill:none;stroke-width:0.6px;stroke-linejoin:miter;stroke:#000;"/><path d="M198.333,152.5l0.5,0" style="fill:none;stroke-width:0.6px;stroke-linejoin:miter;stroke:#000;"/><path d="M198.333,172.084l0.5,0" style="fill:none;stroke-width:0.6px;stroke-linejoin:miter;stroke:#000;"/><path d="M218.166,186.917l0,20" style="fill:none;stroke-width:0.6px;stroke-linejoin:miter;stroke:#000;"/><path d="M217.833,186.917l0.583,0" style="fill:none;stroke-width:0.6px;stroke-linejoin:miter;stroke:#000;"/><path d="M217.833,206.917l0.583,0" style="fill:none;stroke-width:0.6px;stroke-linejoin:miter;stroke:#000;"/><path d="M232.583,198.167l0,31.75" style="fill:none;stroke-width:0.6px;stroke-linejoin:miter;stroke:#000;"/><path d="M232.333,198.167l0.5,0" style="fill:none;stroke-width:0.6px;stroke-linejoin:miter;stroke:#000;"/><path d="M232.333,229.917l0.5,0" style="fill:none;stroke-width:0.6px;stroke-linejoin:miter;stroke:#000;"/><path d="M238,201.084l0,25.333" style="fill:none;stroke-width:0.6px;stroke-linejoin:miter;stroke:#000;"/><path d="M237.666,201.084l0.583,0" style="fill:none;stroke-width:0.6px;stroke-linejoin:miter;stroke:#000;"/><path d="M237.666,226.417l0.583,0" style="fill:none;stroke-width:0.6px;stroke-linejoin:miter;stroke:#000;"/><path d="M252.166,217.417l0,14.417" style="fill:none;stroke-width:0.6px;stroke-linejoin:miter;stroke:#000;"/><path d="M251.916,217.417l0.5,0" style="fill:none;stroke-width:0.6px;stroke-linejoin:miter;stroke:#000;"/><path d="M251.916,231.834l0.5,0" style="fill:none;stroke-width:0.6px;stroke-linejoin:miter;stroke:#000;"/><path d="M276.416,226.25l0,11.75" style="fill:none;stroke-width:0.6px;stroke-linejoin:miter;stroke:#000;"/><path d="M276.166,226.25l0.584,0" style="fill:none;stroke-width:0.6px;stroke-linejoin:miter;stroke:#000;"/><path d="M276.166,238l0.584,0" style="fill:none;stroke-width:0.6px;stroke-linejoin:miter;stroke:#000;"/><path d="M311.75,275.084l0,24.083" style="fill:none;stroke-width:0.6px;stroke-linejoin:miter;stroke:#000;"/><path d="M311.5,275.084l0.5,0" style="fill:none;stroke-width:0.6px;stroke-linejoin:miter;stroke:#000;"/><path d="M311.5,299.167l0.5,0" style="fill:none;stroke-width:0.6px;stroke-linejoin:miter;stroke:#000;"/><path d="M334.166,324.334l0,2.916" style="fill:none;stroke-width:0.6px;stroke-linejoin:miter;stroke:#000;"/><path d="M333.916,324.334l0.584,0" style="fill:none;stroke-width:0.6px;stroke-linejoin:miter;stroke:#000;"/><path d="M333.916,327.25l0.584,0" style="fill:none;stroke-width:0.6px;stroke-linejoin:miter;stroke:#000;"/><path d="M67.5,299.5l0.083,0" style="fill:none;stroke-width:0.6px;stroke-linejoin:miter;stroke:#000;"/><path d="M67.5,299.75l-0.001,-0.5" style="fill:none;stroke-width:0.6px;stroke-linejoin:miter;stroke:#000;"/><path d="M67.583,299.75l0,-0.5" style="fill:none;stroke-width:0.6px;stroke-linejoin:miter;stroke:#000;"/><path d="M75.333,256.084l0.333,0" style="fill:none;stroke-width:0.6px;stroke-linejoin:miter;stroke:#000;"/><path d="M75.333,256.417l0,-0.583" style="fill:none;stroke-width:0.6px;stroke-linejoin:miter;stroke:#000;"/><path d="M75.666,256.417l0,-0.583" style="fill:none;stroke-width:0.6px;stroke-linejoin:miter;stroke:#000;"/><path d="M83.5,213.084l0.249,0" style="fill:none;stroke-width:0.6px;stroke-linejoin:miter;stroke:#000;"/><path d="M83.5,213.417l-0.001,-0.583" style="fill:none;stroke-width:0.6px;stroke-linejoin:miter;stroke:#000;"/><path d="M83.75,213.417l-0.001,-0.583" style="fill:none;stroke-width:0.6px;stroke-linejoin:miter;stroke:#000;"/><path d="M93.833,168.917l0.583,0" style="fill:none;stroke-width:0.6px;stroke-linejoin:miter;stroke:#000;"/><path d="M93.833,169.167l0,-0.583" style="fill:none;stroke-width:0.6px;stroke-linejoin:miter;stroke:#000;"/><path d="M94.416,169.167l0,-0.583" style="fill:none;stroke-width:0.6px;stroke-linejoin:miter;stroke:#000;"/><path d="M114.833,127.334l1.917,0" style="fill:none;stroke-width:0.6px;stroke-linejoin:miter;stroke:#000;"/><path d="M114.833,127.667l0,-0.583" style="fill:none;stroke-width:0.6px;stroke-linejoin:miter;stroke:#000;"/><path d="M116.75,127.667l0,-0.583" style="fill:none;stroke-width:0.6px;stroke-linejoin:miter;stroke:#000;"/><path d="M135.083,117.167l2.5,0" style="fill:none;stroke-width:0.6px;stroke-linejoin:miter;stroke:#000;"/><path d="M135.083,117.417l0,-0.583" style="fill:none;stroke-width:0.6px;stroke-linejoin:miter;stroke:#000;"/><path d="M137.583,117.417l0,-0.583" style="fill:none;stroke-width:0.6px;stroke-linejoin:miter;stroke:#000;"/><path d="M195.083,162.25l7,0" style="fill:none;stroke-width:0.6px;stroke-linejoin:miter;stroke:#000;"/><path d="M195.083,162.584l0,-0.584" style="fill:none;stroke-width:0.6px;stroke-linejoin:miter;stroke:#000;"/><path d="M202.083,162.584l0,-0.584" style="fill:none;stroke-width:0.6px;stroke-linejoin:miter;stroke:#000;"/><path d="M214.25,196.917l7.749,0" style="fill:none;stroke-width:0.6px;stroke-linejoin:miter;stroke:#000;"/><path d="M214.25,197.167l-0.001,-0.5" style="fill:none;stroke-width:0.6px;stroke-linejoin:miter;stroke:#000;"/><path d="M222,197.167l-0.001,-0.5" style="fill:none;stroke-width:0.6px;stroke-linejoin:miter;stroke:#000;"/><path d="M226.833,214.084l11.417,0" style="fill:none;stroke-width:0.6px;stroke-linejoin:miter;stroke:#000;"/><path d="M226.833,214.334l0,-0.584" style="fill:none;stroke-width:0.6px;stroke-linejoin:miter;stroke:#000;"/><path d="M238.25,214.334l0,-0.584" style="fill:none;stroke-width:0.6px;stroke-linejoin:miter;stroke:#000;"/><path d="M234.083,213.75l7.75,0" style="fill:none;stroke-width:0.6px;stroke-linejoin:miter;stroke:#000;"/><path d="M234.083,214.084l0,-0.584" style="fill:none;stroke-width:0.6px;stroke-linejoin:miter;stroke:#000;"/><path d="M241.833,214.084l0,-0.584" style="fill:none;stroke-width:0.6px;stroke-linejoin:miter;stroke:#000;"/><path d="M246.083,224.667l12.167,0" style="fill:none;stroke-width:0.6px;stroke-linejoin:miter;stroke:#000;"/><path d="M246.083,224.917l0,-0.583" style="fill:none;stroke-width:0.6px;stroke-linejoin:miter;stroke:#000;"/><path d="M258.25,224.917l0,-0.583" style="fill:none;stroke-width:0.6px;stroke-linejoin:miter;stroke:#000;"/><path d="M271.916,232.167l9,0" style="fill:none;stroke-width:0.6px;stroke-linejoin:miter;stroke:#000;"/><path d="M271.916,232.417l0,-0.583" style="fill:none;stroke-width:0.6px;stroke-linejoin:miter;stroke:#000;"/><path d="M280.916,232.417l0,-0.583" style="fill:none;stroke-width:0.6px;stroke-linejoin:miter;stroke:#000;"/><path d="M306.583,287.084l10.333,0" style="fill:none;stroke-width:0.6px;stroke-linejoin:miter;stroke:#000;"/><path d="M306.583,287.417l0,-0.583" style="fill:none;stroke-width:0.6px;stroke-linejoin:miter;stroke:#000;"/><path d="M316.916,287.417l0,-0.583" style="fill:none;stroke-width:0.6px;stroke-linejoin:miter;stroke:#000;"/><path d="M330.916,325.834l6.584,0" style="fill:none;stroke-width:0.6px;stroke-linejoin:miter;stroke:#000;"/><path d="M330.916,326.084l0,-0.584" style="fill:none;stroke-width:0.6px;stroke-linejoin:miter;stroke:#000;"/><path d="M337.5,326.084l-0.001,-0.584" style="fill:none;stroke-width:0.6px;stroke-linejoin:miter;stroke:#000;"/><path d="M66.916,301l0,1.5" style="fill:none;stroke-width:0.6px;stroke-linejoin:miter;stroke:#00f;"/><path d="M66.666,301l0.584,0" style="fill:none;stroke-width:0.6px;stroke-linejoin:miter;stroke:#00f;"/><path d="M66.666,302.5l0.584,0" style="fill:none;stroke-width:0.6px;stroke-linejoin:miter;stroke:#00f;"/><path d="M74.833,254.75l0,1" style="fill:none;stroke-width:0.6px;stroke-linejoin:miter;stroke:#00f;"/><path d="M74.583,254.75l0.5,0" style="fill:none;stroke-width:0.6px;stroke-linejoin:miter;stroke:#00f;"/><path d="M74.583,255.75l0.5,0" style="fill:none;stroke-width:0.6px;stroke-linejoin:miter;stroke:#00f;"/><path d="M83.416,211.417l0,1.167" style="fill:none;stroke-width:0.6px;stroke-linejoin:miter;stroke:#00f;"/><path d="M83.166,211.417l0.584,0" style="fill:none;stroke-width:0.6px;stroke-linejoin:miter;stroke:#00f;"/><path d="M83.166,212.584l0.584,0" style="fill:none;stroke-width:0.6px;stroke-linejoin:miter;stroke:#00f;"/><path d="M98.583,166.75l0,1.667" style="fill:none;stroke-width:0.6px;stroke-linejoin:miter;stroke:#00f;"/><path d="M98.333,166.75l0.5,0" style="fill:none;stroke-width:0.6px;stroke-linejoin:miter;stroke:#00f;"/><path d="M98.333,168.417l0.5,0" style="fill:none;stroke-width:0.6px;stroke-linejoin:miter;stroke:#00f;"/><path d="M113.666,124.667l0,1.667" style="fill:none;stroke-width:0.6px;stroke-linejoin:miter;stroke:#00f;"/><path d="M113.416,124.667l0.5,0" style="fill:none;stroke-width:0.6px;stroke-linejoin:miter;stroke:#00f;"/><path d="M113.416,126.334l0.5,0" style="fill:none;stroke-width:0.6px;stroke-linejoin:miter;stroke:#00f;"/><path d="M121.916,115.417l0,3.167" style="fill:none;stroke-width:0.6px;stroke-linejoin:miter;stroke:#00f;"/><path d="M121.666,115.417l0.5,0" style="fill:none;stroke-width:0.6px;stroke-linejoin:miter;stroke:#00f;"/><path d="M121.666,118.584l0.5,0" style="fill:none;stroke-width:0.6px;stroke-linejoin:miter;stroke:#00f;"/><path d="M163.583,137.25l0,21.334" style="fill:none;stroke-width:0.6px;stroke-linejoin:miter;stroke:#00f;"/><path d="M163.333,137.25l0.5,0" style="fill:none;stroke-width:0.6px;stroke-linejoin:miter;stroke:#00f;"/><path d="M163.333,158.584l0.5,0" style="fill:none;stroke-width:0.6px;stroke-linejoin:miter;stroke:#00f;"/><path d="M226.5,178.667l-0.001,15" style="fill:none;stroke-width:0.6px;stroke-linejoin:miter;stroke:#00f;"/><path d="M226.25,178.667l0.583,0" style="fill:none;stroke-width:0.6px;stroke-linejoin:miter;stroke:#00f;"/><path d="M226.25,193.667l0.583,0" style="fill:none;stroke-width:0.6px;stroke-linejoin:miter;stroke:#00f;"/><path d="M241.666,192.834l0,12.833" style="fill:none;stroke-width:0.6px;stroke-linejoin:miter;stroke:#00f;"/><path d="M241.416,192.834l0.5,0" style="fill:none;stroke-width:0.6px;stroke-linejoin:miter;stroke:#00f;"/><path d="M241.416,205.667l0.5,0" style="fill:none;stroke-width:0.6px;stroke-linejoin:miter;stroke:#00f;"/><path d="M252.75,202.167l0,9.083" style="fill:none;stroke-width:0.6px;stroke-linejoin:miter;stroke:#00f;"/><path d="M252.416,202.167l0.584,0" style="fill:none;stroke-width:0.6px;stroke-linejoin:miter;stroke:#00f;"/><path d="M252.416,211.25l0.584,0" style="fill:none;stroke-width:0.6px;stroke-linejoin:miter;stroke:#00f;"/><path d="M269.5,207.25l0,13.334" style="fill:none;stroke-width:0.6px;stroke-linejoin:miter;stroke:#00f;"/><path d="M269.25,207.25l0.583,0" style="fill:none;stroke-width:0.6px;stroke-linejoin:miter;stroke:#00f;"/><path d="M269.25,220.584l0.583,0" style="fill:none;stroke-width:0.6px;stroke-linejoin:miter;stroke:#00f;"/><path d="M316.833,264.251l0,5.666" style="fill:none;stroke-width:0.6px;stroke-linejoin:miter;stroke:#00f;"/><path d="M316.583,264.251l0.5,0" style="fill:none;stroke-width:0.6px;stroke-linejoin:miter;stroke:#00f;"/><path d="M316.583,269.917l0.5,0" style="fill:none;stroke-width:0.6px;stroke-linejoin:miter;stroke:#00f;"/><path d="M361.166,321.5l0,3.75" style="fill:none;stroke-width:0.6px;stroke-linejoin:miter;stroke:#00f;"/><path d="M360.833,321.5l0.583,0" style="fill:none;stroke-width:0.6px;stroke-linejoin:miter;stroke:#00f;"/><path d="M360.833,325.25l0.583,0" style="fill:none;stroke-width:0.6px;stroke-linejoin:miter;stroke:#00f;"/><path d="M66.833,301.75l0.25,0" style="fill:none;stroke-width:0.6px;stroke-linejoin:miter;stroke:#00f;"/><path d="M66.833,302l0,-0.5" style="fill:none;stroke-width:0.6px;stroke-linejoin:miter;stroke:#00f;"/><path d="M67.083,302l0,-0.5" style="fill:none;stroke-width:0.6px;stroke-linejoin:miter;stroke:#00f;"/><path d="M74.666,255.25l0.334,0" style="fill:none;stroke-width:0.6px;stroke-linejoin:miter;stroke:#00f;"/><path d="M74.666,255.584l0,-0.584" style="fill:none;stroke-width:0.6px;stroke-linejoin:miter;stroke:#00f;"/><path d="M75,255.584l-0.001,-0.584" style="fill:none;stroke-width:0.6px;stroke-linejoin:miter;stroke:#00f;"/><path d="M83.333,212l0.25,0" style="fill:none;stroke-width:0.6px;stroke-linejoin:miter;stroke:#00f;"/><path d="M83.333,212.25l0,-0.583" style="fill:none;stroke-width:0.6px;stroke-linejoin:miter;stroke:#00f;"/><path d="M83.583,212.25l0,-0.583" style="fill:none;stroke-width:0.6px;stroke-linejoin:miter;stroke:#00f;"/><path d="M98.333,167.584l0.5,0" style="fill:none;stroke-width:0.6px;stroke-linejoin:miter;stroke:#00f;"/><path d="M98.333,167.917l0,-0.583" style="fill:none;stroke-width:0.6px;stroke-linejoin:miter;stroke:#00f;"/><path d="M98.833,167.917l0,-0.583" style="fill:none;stroke-width:0.6px;stroke-linejoin:miter;stroke:#00f;"/><path d="M113.25,125.5l0.833,0" style="fill:none;stroke-width:0.6px;stroke-linejoin:miter;stroke:#00f;"/><path d="M113.25,125.75l0,-0.5" style="fill:none;stroke-width:0.6px;stroke-linejoin:miter;stroke:#00f;"/><path d="M114.083,125.75l0,-0.5" style="fill:none;stroke-width:0.6px;stroke-linejoin:miter;stroke:#00f;"/><path d="M120.75,117l2.333,0" style="fill:none;stroke-width:0.6px;stroke-linejoin:miter;stroke:#00f;"/><path d="M120.75,117.25l0,-0.5" style="fill:none;stroke-width:0.6px;stroke-linejoin:miter;stroke:#00f;"/><path d="M123.083,117.25l0,-0.5" style="fill:none;stroke-width:0.6px;stroke-linejoin:miter;stroke:#00f;"/><path d="M152.916,147.917l21.333,0" style="fill:none;stroke-width:0.6px;stroke-linejoin:miter;stroke:#00f;"/><path d="M152.916,148.25l0,-0.583" style="fill:none;stroke-width:0.6px;stroke-linejoin:miter;stroke:#00f;"/><path d="M174.25,148.25l-0.001,-0.583" style="fill:none;stroke-width:0.6px;stroke-linejoin:miter;stroke:#00f;"/><path d="M221,186.167l11.083,0" style="fill:none;stroke-width:0.6px;stroke-linejoin:miter;stroke:#00f;"/><path d="M221,186.417l-0.001,-0.5" style="fill:none;stroke-width:0.6px;stroke-linejoin:miter;stroke:#00f;"/><path d="M232.083,186.417l0,-0.5" style="fill:none;stroke-width:0.6px;stroke-linejoin:miter;stroke:#00f;"/><path d="M236.666,199.25l10,0" style="fill:none;stroke-width:0.6px;stroke-linejoin:miter;stroke:#00f;"/><path d="M236.666,199.5l0,-0.5" style="fill:none;stroke-width:0.6px;stroke-linejoin:miter;stroke:#00f;"/><path d="M246.666,199.5l0,-0.5" style="fill:none;stroke-width:0.6px;stroke-linejoin:miter;stroke:#00f;"/><path d="M247.666,206.667l10.084,0" style="fill:none;stroke-width:0.6px;stroke-linejoin:miter;stroke:#00f;"/><path d="M247.666,207l0,-0.583" style="fill:none;stroke-width:0.6px;stroke-linejoin:miter;stroke:#00f;"/><path d="M257.75,207l0,-0.583" style="fill:none;stroke-width:0.6px;stroke-linejoin:miter;stroke:#00f;"/><path d="M264.666,213.917l9.75,0" style="fill:none;stroke-width:0.6px;stroke-linejoin:miter;stroke:#00f;"/><path d="M264.666,214.167l0,-0.583" style="fill:none;stroke-width:0.6px;stroke-linejoin:miter;stroke:#00f;"/><path d="M274.416,214.167l0,-0.583" style="fill:none;stroke-width:0.6px;stroke-linejoin:miter;stroke:#00f;"/><path d="M313.666,267.084l6.334,0" style="fill:none;stroke-width:0.6px;stroke-linejoin:miter;stroke:#00f;"/><path d="M313.666,267.334l0,-0.5" style="fill:none;stroke-width:0.6px;stroke-linejoin:miter;stroke:#00f;"/><path d="M320,267.334l-0.001,-0.5" style="fill:none;stroke-width:0.6px;stroke-linejoin:miter;stroke:#00f;"/><path d="M357.75,323.417l6.833,0" style="fill:none;stroke-width:0.6px;stroke-linejoin:miter;stroke:#00f;"/><path d="M357.75,323.667l-0.001,-0.583" style="fill:none;stroke-width:0.6px;stroke-linejoin:miter;stroke:#00f;"/><path d="M364.583,323.667l0,-0.583" style="fill:none;stroke-width:0.6px;stroke-linejoin:miter;stroke:#00f;"/></g><g><path d="M234.207,414.868l0,4.382l-1.26,0l0,-4.942c0,-0.952 -0.476,-1.484 -1.4,-1.484c-1.302,0 -2.086,0.784 -2.086,2.254l0,4.172l-1.218,0l0,-7.336l1.176,0l0,1.022c0.532,-0.812 1.274,-1.218 2.24,-1.218c1.078,0 1.82,0.35 2.24,1.008c0.28,0.434 0.308,0.98 0.308,1.624l0,0.518Z" style="fill:#000;fill-rule:nonzero;"/><path d="M242.341,415.946l-5.404,0c0.028,1.54 0.854,2.408 2.198,2.408c1.008,0 1.694,-0.518 1.904,-1.47l1.176,0c-0.252,1.61 -1.47,2.576 -3.276,2.576c-1.974,0 -3.262,-1.4 -3.262,-3.864c0,-2.436 1.302,-3.878 3.318,-3.878c2.114,0 3.346,1.316 3.346,3.696c0,0.154 0,0.35 0,0.532ZM241.067,414.924c-0.028,-1.372 -0.756,-2.114 -2.058,-2.114c-1.218,0 -1.96,0.742 -2.072,2.114l4.13,0Z" style="fill:#000;fill-rule:nonzero;"/><path d="M244.119,409.884l1.148,0l0,2.058l1.232,0l0,0.966l-1.232,0l0,4.48c0,0.56 0.07,0.84 0.574,0.84c0.196,0 0.392,-0.028 0.658,-0.056l0,1.064c-0.378,0.07 -0.7,0.112 -1.008,0.112c-1.05,0 -1.372,-0.448 -1.372,-1.54l0,-4.9l-1.022,0l0,-0.966l1.022,0l0,-2.058Z" style="fill:#000;fill-rule:nonzero;"/><path d="M246.989,411.928l1.246,0l1.512,5.586l1.386,-5.586l1.4,0l1.386,5.586l1.54,-5.586l1.26,0l-2.184,7.322l-1.204,0l-1.47,-5.628l-1.526,5.628l-1.218,0l-2.128,-7.322Z" style="fill:#000;fill-rule:nonzero;"/><path d="M260.793,411.718c2.128,0 3.402,1.386 3.402,3.864c0,2.492 -1.274,3.864 -3.402,3.864c-2.142,0 -3.402,-1.372 -3.402,-3.864c0,-2.478 1.288,-3.864 3.402,-3.864ZM260.807,412.81c-1.358,0 -2.156,0.966 -2.156,2.772c0,1.82 0.798,2.786 2.156,2.786c1.316,0 2.114,-0.966 2.114,-2.786c0,-1.806 -0.798,-2.772 -2.114,-2.772Z" style="fill:#000;fill-rule:nonzero;"/><path d="M269.333,411.746l0,1.302c-0.098,-0.014 -0.196,-0.014 -0.308,-0.014c-1.302,0 -2.016,0.77 -2.016,2.114l0,4.102l-1.246,0l0,-7.364l1.204,0l0,1.33c0.364,-0.98 1.064,-1.498 1.988,-1.498c0.042,0 0.168,0 0.378,0.028Z" style="fill:#000;fill-rule:nonzero;"/><path d="M270.285,409.198l1.274,0l0,5.992l3.192,-3.234l1.61,0l-2.702,2.66l2.646,4.634l-1.4,0l-2.128,-3.766l-1.218,1.232l0,2.534l-1.274,0l0,-10.052Z" style="fill:#000;fill-rule:nonzero;"/><path d="M285.993,409.198l1.232,0l0,10.038l-1.232,0l0,-0.812c-0.546,0.7 -1.33,1.036 -2.198,1.036c-1.82,0 -3.066,-1.428 -3.066,-3.85c0,-2.464 1.274,-3.892 3.066,-3.892c0.938,0 1.68,0.35 2.198,1.022l0,-3.542ZM284.033,412.796c-1.204,0 -2.016,1.022 -2.016,2.8c0,1.778 0.784,2.786 2.016,2.786c1.246,0 2.002,-0.994 2.002,-2.842c0,-1.82 -0.658,-2.744 -2.002,-2.744Z" style="fill:#000;fill-rule:nonzero;"/><path d="M295.247,415.946l-5.404,0c0.028,1.54 0.854,2.408 2.198,2.408c1.008,0 1.694,-0.518 1.904,-1.47l1.176,0c-0.252,1.61 -1.47,2.576 -3.276,2.576c-1.974,0 -3.262,-1.4 -3.262,-3.864c0,-2.436 1.302,-3.878 3.318,-3.878c2.114,0 3.346,1.316 3.346,3.696c0,0.154 0,0.35 0,0.532ZM293.973,414.924c-0.028,-1.372 -0.756,-2.114 -2.058,-2.114c-1.218,0 -1.96,0.742 -2.072,2.114l4.13,0Z" style="fill:#000;fill-rule:nonzero;"/><path d="M302.681,414.868l0,4.382l-1.26,0l0,-4.942c0,-0.952 -0.476,-1.484 -1.4,-1.484c-1.302,0 -2.086,0.784 -2.086,2.254l0,4.172l-1.218,0l0,-7.336l1.176,0l0,1.022c0.532,-0.812 1.274,-1.218 2.24,-1.218c1.078,0 1.82,0.35 2.24,1.008c0.28,0.434 0.308,0.98 0.308,1.624l0,0.518Z" style="fill:#000;fill-rule:nonzero;"/><path d="M309.877,413.986l-1.204,0c-0.042,-0.77 -0.658,-1.218 -1.68,-1.218c-1.008,0 -1.512,0.364 -1.512,1.036c0,0.518 0.392,0.714 1.148,0.896l1.204,0.28c1.414,0.336 2.254,0.784 2.254,2.044c0,1.526 -1.092,2.436 -3.094,2.436c-1.876,0 -2.912,-0.91 -2.954,-2.59l1.218,0c0.056,0.98 0.686,1.512 1.862,1.512c1.078,0 1.722,-0.462 1.722,-1.176c0,-0.616 -0.364,-0.798 -1.134,-0.966l-1.372,-0.364c-1.4,-0.35 -2.072,-0.812 -2.072,-1.96c0,-1.344 0.994,-2.198 2.73,-2.198c1.778,0 2.884,0.91 2.884,2.24l0,0.028Z" style="fill:#000;fill-rule:nonzero;"/><path d="M311.529,409.198l1.232,0l0,1.414l-1.232,0l0,-1.414ZM311.529,411.956l1.232,0l0,7.294l-1.232,0l0,-7.294Z" style="fill:#000;fill-rule:nonzero;"/><path d="M314.917,409.884l1.148,0l0,2.058l1.232,0l0,0.966l-1.232,0l0,4.48c0,0.56 0.07,0.84 0.574,0.84c0.196,0 0.392,-0.028 0.658,-0.056l0,1.064c-0.378,0.07 -0.7,0.112 -1.008,0.112c-1.05,0 -1.372,-0.448 -1.372,-1.54l0,-4.9l-1.022,0l0,-0.966l1.022,0l0,-2.058Z" style="fill:#000;fill-rule:nonzero;"/><path d="M317.745,411.928l1.358,0l1.988,5.866l1.974,-5.866l1.372,0l-3.024,8.414c-0.49,1.331 -0.854,1.905 -2.128,1.905c-0.28,0 -0.504,-0.042 -0.742,-0.112l0,-1.162c0.252,0.084 0.462,0.112 0.714,0.112c0.448,0 0.714,-0.168 0.882,-0.603l0.322,-0.868l-2.716,-7.686Z" style="fill:#000;fill-rule:nonzero;"/><path d="M10.784,244.543l4.382,0l0,1.26l-4.942,0c-0.952,0 -1.484,0.476 -1.484,1.4c0,1.302 0.784,2.086 2.254,2.086l4.172,0l0,1.218l-7.336,0l0,-1.176l1.022,0c-0.812,-0.532 -1.218,-1.274 -1.218,-2.24c0,-1.078 0.35,-1.82 1.008,-2.24c0.434,-0.28 0.98,-0.308 1.624,-0.308l0.518,0Z" style="fill:#000;fill-rule:nonzero;"/><path d="M11.862,236.409l0,5.404c1.54,-0.028 2.408,-0.854 2.408,-2.198c0,-1.008 -0.518,-1.694 -1.47,-1.904l0,-1.176c1.61,0.252 2.576,1.47 2.576,3.276c0,1.974 -1.4,3.262 -3.864,3.262c-2.436,0 -3.878,-1.302 -3.878,-3.318c0,-2.114 1.316,-3.346 3.696,-3.346c0.154,0 0.35,0 0.532,0ZM10.84,237.683c-1.372,0.028 -2.114,0.756 -2.114,2.058c0,1.218 0.742,1.96 2.114,2.072l0,-4.13Z" style="fill:#000;fill-rule:nonzero;"/><path d="M5.8,234.631l0,-1.148l2.058,0l0,-1.232l0.966,0l0,1.232l4.48,0c0.56,0 0.84,-0.07 0.84,-0.574c0,-0.196 -0.028,-0.392 -0.056,-0.658l1.064,0c0.07,0.378 0.112,0.7 0.112,1.008c0,1.05 -0.448,1.372 -1.54,1.372l-4.9,0l0,1.022l-0.966,0l0,-1.022l-2.058,0Z" style="fill:#000;fill-rule:nonzero;"/><path d="M7.844,231.761l0,-1.246l5.586,-1.512l-5.586,-1.386l0,-1.4l5.586,-1.386l-5.586,-1.54l0,-1.26l7.322,2.184l0,1.204l-5.628,1.47l5.628,1.526l0,1.218l-7.322,2.128Z" style="fill:#000;fill-rule:nonzero;"/><path d="M7.634,217.957c0,-2.128 1.386,-3.402 3.864,-3.402c2.492,0 3.864,1.274 3.864,3.402c0,2.142 -1.372,3.402 -3.864,3.402c-2.478,0 -3.864,-1.288 -3.864,-3.402ZM8.726,217.943c0,1.358 0.966,2.156 2.772,2.156c1.82,0 2.786,-0.798 2.786,-2.156c0,-1.316 -0.966,-2.114 -2.786,-2.114c-1.806,0 -2.772,0.798 -2.772,2.114Z" style="fill:#000;fill-rule:nonzero;"/><path d="M7.662,209.417l1.302,0c-0.014,0.098 -0.014,0.196 -0.014,0.308c0,1.302 0.77,2.016 2.114,2.016l4.102,0l0,1.246l-7.364,0l0,-1.204l1.33,0c-0.98,-0.364 -1.498,-1.064 -1.498,-1.988c0,-0.042 0,-0.168 0.028,-0.378Z" style="fill:#000;fill-rule:nonzero;"/><path d="M5.114,208.465l0,-1.274l5.992,0l-3.234,-3.192l0,-1.61l2.66,2.702l4.634,-2.646l0,1.4l-3.766,2.128l1.232,1.218l2.534,0l0,1.274l-10.052,0Z" style="fill:#000;fill-rule:nonzero;"/><path d="M5.072,194.843l1.092,0l-0.028,0.126c0,0.028 -0.028,0.126 -0.028,0.322c0,0.672 0.35,0.798 1.134,0.798l0.63,0l0,-1.246l0.966,0l0,1.246l6.328,0l0,1.092l-6.328,0l0,1.134l-0.966,0l0,-1.134l-1.092,0c-1.204,0 -1.806,-0.504 -1.806,-1.54c0,-0.238 0.056,-0.504 0.098,-0.798Z" style="fill:#000;fill-rule:nonzero;"/><rect x="5.114" y="192.449" width="10.052" height="1.232" style="fill:#000;fill-rule:nonzero;"/><path d="M7.634,187.619c0,-2.128 1.386,-3.402 3.864,-3.402c2.492,0 3.864,1.274 3.864,3.402c0,2.142 -1.372,3.402 -3.864,3.402c-2.478,0 -3.864,-1.288 -3.864,-3.402ZM8.726,187.605c0,1.358 0.966,2.156 2.772,2.156c1.82,0 2.786,-0.798 2.786,-2.156c0,-1.316 -0.966,-2.114 -2.786,-2.114c-1.806,0 -2.772,0.798 -2.772,2.114Z" style="fill:#000;fill-rule:nonzero;"/><path d="M7.844,183.531l0,-1.246l5.586,-1.512l-5.586,-1.386l0,-1.4l5.586,-1.386l-5.586,-1.54l0,-1.26l7.322,2.184l0,1.204l-5.628,1.47l5.628,1.526l0,1.218l-7.322,2.128Z" style="fill:#000;fill-rule:nonzero;"/><rect x="80.44" y="9.032" width="1.358" height="10.052" style="fill:#000;fill-rule:nonzero;"/><path d="M89.344,13.82l-1.204,0c-0.042,-0.77 -0.658,-1.218 -1.68,-1.218c-1.008,0 -1.512,0.364 -1.512,1.036c0,0.518 0.392,0.714 1.148,0.896l1.204,0.28c1.414,0.336 2.254,0.784 2.254,2.044c0,1.526 -1.092,2.436 -3.094,2.436c-1.876,0 -2.912,-0.91 -2.954,-2.59l1.218,0c0.056,0.98 0.686,1.512 1.862,1.512c1.078,0 1.722,-0.462 1.722,-1.176c0,-0.616 -0.364,-0.798 -1.134,-0.966l-1.372,-0.364c-1.4,-0.35 -2.072,-0.812 -2.072,-1.96c0,-1.344 0.994,-2.198 2.73,-2.198c1.778,0 2.884,0.91 2.884,2.24l0,0.028Z" style="fill:#000;fill-rule:nonzero;"/><path d="M93.95,11.552c2.128,0 3.402,1.386 3.402,3.864c0,2.492 -1.274,3.864 -3.402,3.864c-2.142,0 -3.402,-1.372 -3.402,-3.864c0,-2.478 1.288,-3.864 3.402,-3.864ZM93.964,12.644c-1.358,0 -2.156,0.966 -2.156,2.772c0,1.82 0.798,2.786 2.156,2.786c1.316,0 2.114,-0.966 2.114,-2.786c0,-1.806 -0.798,-2.772 -2.114,-2.772Z" style="fill:#000;fill-rule:nonzero;"/><path d="M99.06,9.718l1.148,0l0,2.058l1.232,0l0,0.966l-1.232,0l0,4.48c0,0.56 0.07,0.84 0.574,0.84c0.196,0 0.392,-0.028 0.658,-0.056l0,1.064c-0.378,0.07 -0.7,0.112 -1.008,0.112c-1.05,0 -1.372,-0.448 -1.372,-1.54l0,-4.9l-1.022,0l0,-0.966l1.022,0l0,-2.058Z" style="fill:#000;fill-rule:nonzero;"/><path d="M106.382,11.58l0,1.302c-0.098,-0.014 -0.196,-0.014 -0.308,-0.014c-1.302,0 -2.016,0.77 -2.016,2.114l0,4.102l-1.246,0l0,-7.364l1.204,0l0,1.33c0.364,-0.98 1.064,-1.498 1.988,-1.498c0.042,0 0.168,0 0.378,0.028Z" style="fill:#000;fill-rule:nonzero;"/><path d="M110.288,11.552c2.128,0 3.402,1.386 3.402,3.864c0,2.492 -1.274,3.864 -3.402,3.864c-2.142,0 -3.402,-1.372 -3.402,-3.864c0,-2.478 1.288,-3.864 3.402,-3.864ZM110.302,12.644c-1.358,0 -2.156,0.966 -2.156,2.772c0,1.82 0.798,2.786 2.156,2.786c1.316,0 2.114,-0.966 2.114,-2.786c0,-1.806 -0.798,-2.772 -2.114,-2.772Z" style="fill:#000;fill-rule:nonzero;"/><path d="M116.196,18.3l0,3.682l-1.204,0l0,-10.192l1.204,0l0,0.896c0.56,-0.798 1.218,-1.134 2.184,-1.134c1.792,0 3.038,1.414 3.038,3.85c0,2.492 -1.274,3.892 -3.038,3.892c-0.938,0 -1.666,-0.35 -2.184,-0.994ZM118.184,12.658c-1.302,0 -2.03,0.98 -2.03,2.814c0,1.792 0.672,2.744 1.932,2.744c1.288,0 2.044,-0.994 2.044,-2.898c0,-1.666 -0.826,-2.66 -1.946,-2.66Z" style="fill:#000;fill-rule:nonzero;"/><path d="M122.902,9.032l1.232,0l0,1.414l-1.232,0l0,-1.414ZM122.902,11.79l1.232,0l0,7.294l-1.232,0l0,-7.294Z" style="fill:#000;fill-rule:nonzero;"/><path d="M131.75,14.212l-1.26,0c-0.042,-0.994 -0.7,-1.568 -1.764,-1.568c-1.218,0 -1.946,0.966 -1.946,2.758c0,1.82 0.686,2.786 1.946,2.786c1.022,0 1.68,-0.658 1.834,-1.722l1.19,0c-0.098,1.75 -1.274,2.828 -3.136,2.828c-1.946,0 -3.122,-1.428 -3.122,-3.892c0,-2.408 1.246,-3.85 3.234,-3.85c1.792,0 2.968,1.064 3.024,2.66Z" style="fill:#000;fill-rule:nonzero;"/><path d="M142.558,13.82l0,3.64c0,0.476 0.056,0.728 0.504,0.728c0.084,0 0.182,0 0.322,-0.042l0,0.966c-0.252,0.07 -0.476,0.126 -0.714,0.126c-0.826,0 -1.218,-0.378 -1.218,-1.162c-0.77,0.84 -1.624,1.218 -2.618,1.218c-1.54,0 -2.366,-0.84 -2.366,-2.184c0,-1.512 0.938,-2.114 2.87,-2.324c1.75,-0.182 2.03,-0.098 2.03,-1.022c0,-0.756 -0.574,-1.12 -1.694,-1.12c-1.162,0 -1.75,0.462 -1.75,1.33l-1.148,0l0,-0.07c0,-1.428 1.092,-2.352 2.94,-2.352c1.988,0 2.842,0.728 2.842,2.268ZM141.368,15.36c-0.728,0.35 -1.512,0.364 -2.38,0.504c-0.882,0.168 -1.302,0.49 -1.302,1.218c0,0.728 0.49,1.134 1.358,1.134c1.33,0 2.324,-0.714 2.324,-1.75l0,-1.106Z" style="fill:#000;fill-rule:nonzero;"/><path d="M150.622,14.702l0,4.382l-1.26,0l0,-4.942c0,-0.952 -0.476,-1.484 -1.4,-1.484c-1.302,0 -2.086,0.784 -2.086,2.254l0,4.172l-1.218,0l0,-7.336l1.176,0l0,1.022c0.532,-0.812 1.274,-1.218 2.24,-1.218c1.078,0 1.82,0.35 2.24,1.008c0.28,0.434 0.308,0.98 0.308,1.624l0,0.518Z" style="fill:#000;fill-rule:nonzero;"/><path d="M157.286,9.032l1.232,0l0,10.038l-1.232,0l0,-0.812c-0.546,0.7 -1.33,1.036 -2.198,1.036c-1.82,0 -3.066,-1.428 -3.066,-3.85c0,-2.464 1.274,-3.892 3.066,-3.892c0.938,0 1.68,0.35 2.198,1.022l0,-3.542ZM155.326,12.63c-1.204,0 -2.016,1.022 -2.016,2.8c0,1.778 0.784,2.786 2.016,2.786c1.246,0 2.002,-0.994 2.002,-2.842c0,-1.82 -0.658,-2.744 -2.002,-2.744Z" style="fill:#000;fill-rule:nonzero;"/><path d="M164.426,9.718l1.148,0l0,2.058l1.232,0l0,0.966l-1.232,0l0,4.48c0,0.56 0.07,0.84 0.574,0.84c0.196,0 0.392,-0.028 0.658,-0.056l0,1.064c-0.378,0.07 -0.7,0.112 -1.008,0.112c-1.05,0 -1.372,-0.448 -1.372,-1.54l0,-4.9l-1.022,0l0,-0.966l1.022,0l0,-2.058Z" style="fill:#000;fill-rule:nonzero;"/><path d="M168.038,9.032l1.232,0l0,1.414l-1.232,0l0,-1.414ZM168.038,11.79l1.232,0l0,7.294l-1.232,0l0,-7.294Z" style="fill:#000;fill-rule:nonzero;"/><path d="M176.41,12.7c0.602,-0.77 1.316,-1.148 2.24,-1.148c0.98,0 1.666,0.35 2.044,1.008c0.252,0.434 0.28,0.952 0.28,1.596l0,4.928l-1.232,0l0,-4.508l0,-0.434c0,-1.008 -0.434,-1.484 -1.302,-1.484c-1.134,0 -1.778,0.742 -1.778,2.086l0,4.34l-1.274,0l0,-4.942c0,-1.008 -0.42,-1.484 -1.246,-1.484c-1.106,0 -1.806,0.756 -1.806,2.086l0,4.34l-1.218,0l0,-7.336l1.176,0l0,0.994c0.532,-0.784 1.204,-1.19 2.17,-1.19c0.91,0 1.512,0.378 1.946,1.148Z" style="fill:#000;fill-rule:nonzero;"/><path d="M189.094,15.78l-5.404,0c0.028,1.54 0.854,2.408 2.198,2.408c1.008,0 1.694,-0.518 1.904,-1.47l1.176,0c-0.252,1.61 -1.47,2.576 -3.276,2.576c-1.974,0 -3.262,-1.4 -3.262,-3.864c0,-2.436 1.302,-3.878 3.318,-3.878c2.114,0 3.346,1.316 3.346,3.696c0,0.154 0,0.35 0,0.532ZM187.82,14.758c-0.028,-1.372 -0.756,-2.114 -2.058,-2.114c-1.218,0 -1.96,0.742 -2.072,2.114l4.13,0Z" style="fill:#000;fill-rule:nonzero;"/><path d="M194.484,9.032l1.232,0l0,1.414l-1.232,0l0,-1.414ZM194.484,11.79l1.232,0l0,7.294l-1.232,0l0,-7.294Z" style="fill:#000;fill-rule:nonzero;"/><path d="M203.528,14.702l0,4.382l-1.26,0l0,-4.942c0,-0.952 -0.476,-1.484 -1.4,-1.484c-1.302,0 -2.086,0.784 -2.086,2.254l0,4.172l-1.218,0l0,-7.336l1.176,0l0,1.022c0.532,-0.812 1.274,-1.218 2.24,-1.218c1.078,0 1.82,0.35 2.24,1.008c0.28,0.434 0.308,0.98 0.308,1.624l0,0.518Z" style="fill:#000;fill-rule:nonzero;"/><path d="M210.192,9.032l1.232,0l0,10.038l-1.232,0l0,-0.812c-0.546,0.7 -1.33,1.036 -2.198,1.036c-1.82,0 -3.066,-1.428 -3.066,-3.85c0,-2.464 1.274,-3.892 3.066,-3.892c0.938,0 1.68,0.35 2.198,1.022l0,-3.542ZM208.232,12.63c-1.204,0 -2.016,1.022 -2.016,2.8c0,1.778 0.784,2.786 2.016,2.786c1.246,0 2.002,-0.994 2.002,-2.842c0,-1.82 -0.658,-2.744 -2.002,-2.744Z" style="fill:#000;fill-rule:nonzero;"/><path d="M219.446,15.78l-5.404,0c0.028,1.54 0.854,2.408 2.198,2.408c1.008,0 1.694,-0.518 1.904,-1.47l1.176,0c-0.252,1.61 -1.47,2.576 -3.276,2.576c-1.974,0 -3.262,-1.4 -3.262,-3.864c0,-2.436 1.302,-3.878 3.318,-3.878c2.114,0 3.346,1.316 3.346,3.696c0,0.154 0,0.35 0,0.532ZM218.172,14.758c-0.028,-1.372 -0.756,-2.114 -2.058,-2.114c-1.218,0 -1.96,0.742 -2.072,2.114l4.13,0Z" style="fill:#000;fill-rule:nonzero;"/><path d="M222.022,18.3l0,3.682l-1.204,0l0,-10.192l1.204,0l0,0.896c0.56,-0.798 1.218,-1.134 2.184,-1.134c1.792,0 3.038,1.414 3.038,3.85c0,2.492 -1.274,3.892 -3.038,3.892c-0.938,0 -1.666,-0.35 -2.184,-0.994ZM224.01,12.658c-1.302,0 -2.03,0.98 -2.03,2.814c0,1.792 0.672,2.744 1.932,2.744c1.288,0 2.044,-0.994 2.044,-2.898c0,-1.666 -0.826,-2.66 -1.946,-2.66Z" style="fill:#000;fill-rule:nonzero;"/><path d="M235.014,15.78l-5.404,0c0.028,1.54 0.854,2.408 2.198,2.408c1.008,0 1.694,-0.518 1.904,-1.47l1.176,0c-0.252,1.61 -1.47,2.576 -3.276,2.576c-1.974,0 -3.262,-1.4 -3.262,-3.864c0,-2.436 1.302,-3.878 3.318,-3.878c2.114,0 3.346,1.316 3.346,3.696c0,0.154 0,0.35 0,0.532ZM233.74,14.758c-0.028,-1.372 -0.756,-2.114 -2.058,-2.114c-1.218,0 -1.96,0.742 -2.072,2.114l4.13,0Z" style="fill:#000;fill-rule:nonzero;"/><path d="M242.448,14.702l0,4.382l-1.26,0l0,-4.942c0,-0.952 -0.476,-1.484 -1.4,-1.484c-1.302,0 -2.086,0.784 -2.086,2.254l0,4.172l-1.218,0l0,-7.336l1.176,0l0,1.022c0.532,-0.812 1.274,-1.218 2.24,-1.218c1.078,0 1.82,0.35 2.24,1.008c0.28,0.434 0.308,0.98 0.308,1.624l0,0.518Z" style="fill:#000;fill-rule:nonzero;"/><path d="M249.112,9.032l1.232,0l0,10.038l-1.232,0l0,-0.812c-0.546,0.7 -1.33,1.036 -2.198,1.036c-1.82,0 -3.066,-1.428 -3.066,-3.85c0,-2.464 1.274,-3.892 3.066,-3.892c0.938,0 1.68,0.35 2.198,1.022l0,-3.542ZM247.152,12.63c-1.204,0 -2.016,1.022 -2.016,2.8c0,1.778 0.784,2.786 2.016,2.786c1.246,0 2.002,-0.994 2.002,-2.842c0,-1.82 -0.658,-2.744 -2.002,-2.744Z" style="fill:#000;fill-rule:nonzero;"/><path d="M258.366,15.78l-5.404,0c0.028,1.54 0.854,2.408 2.198,2.408c1.008,0 1.694,-0.518 1.904,-1.47l1.176,0c-0.252,1.61 -1.47,2.576 -3.276,2.576c-1.974,0 -3.262,-1.4 -3.262,-3.864c0,-2.436 1.302,-3.878 3.318,-3.878c2.114,0 3.346,1.316 3.346,3.696c0,0.154 0,0.35 0,0.532ZM257.092,14.758c-0.028,-1.372 -0.756,-2.114 -2.058,-2.114c-1.218,0 -1.96,0.742 -2.072,2.114l4.13,0Z" style="fill:#000;fill-rule:nonzero;"/><path d="M265.8,14.702l0,4.382l-1.26,0l0,-4.942c0,-0.952 -0.476,-1.484 -1.4,-1.484c-1.302,0 -2.086,0.784 -2.086,2.254l0,4.172l-1.218,0l0,-7.336l1.176,0l0,1.022c0.532,-0.812 1.274,-1.218 2.24,-1.218c1.078,0 1.82,0.35 2.24,1.008c0.28,0.434 0.308,0.98 0.308,1.624l0,0.518Z" style="fill:#000;fill-rule:nonzero;"/><path d="M267.928,9.718l1.148,0l0,2.058l1.232,0l0,0.966l-1.232,0l0,4.48c0,0.56 0.07,0.84 0.574,0.84c0.196,0 0.392,-0.028 0.658,-0.056l0,1.064c-0.378,0.07 -0.7,0.112 -1.008,0.112c-1.05,0 -1.372,-0.448 -1.372,-1.54l0,-4.9l-1.022,0l0,-0.966l1.022,0l0,-2.058Z" style="fill:#000;fill-rule:nonzero;"/><path d="M279.142,11.58l0,1.302c-0.098,-0.014 -0.196,-0.014 -0.308,-0.014c-1.302,0 -2.016,0.77 -2.016,2.114l0,4.102l-1.246,0l0,-7.364l1.204,0l0,1.33c0.364,-0.98 1.064,-1.498 1.988,-1.498c0.042,0 0.168,0 0.378,0.028Z" style="fill:#000;fill-rule:nonzero;"/><path d="M285.75,13.82l0,3.64c0,0.476 0.056,0.728 0.504,0.728c0.084,0 0.182,0 0.322,-0.042l0,0.966c-0.252,0.07 -0.476,0.126 -0.714,0.126c-0.826,0 -1.218,-0.378 -1.218,-1.162c-0.77,0.84 -1.624,1.218 -2.618,1.218c-1.54,0 -2.366,-0.84 -2.366,-2.184c0,-1.512 0.938,-2.114 2.87,-2.324c1.75,-0.182 2.03,-0.098 2.03,-1.022c0,-0.756 -0.574,-1.12 -1.694,-1.12c-1.162,0 -1.75,0.462 -1.75,1.33l-1.148,0l0,-0.07c0,-1.428 1.092,-2.352 2.94,-2.352c1.988,0 2.842,0.728 2.842,2.268ZM284.56,15.36c-0.728,0.35 -1.512,0.364 -2.38,0.504c-0.882,0.168 -1.302,0.49 -1.302,1.218c0,0.728 0.49,1.134 1.358,1.134c1.33,0 2.324,-0.714 2.324,-1.75l0,-1.106Z" style="fill:#000;fill-rule:nonzero;"/><path d="M288.158,9.718l1.148,0l0,2.058l1.232,0l0,0.966l-1.232,0l0,4.48c0,0.56 0.07,0.84 0.574,0.84c0.196,0 0.392,-0.028 0.658,-0.056l0,1.064c-0.378,0.07 -0.7,0.112 -1.008,0.112c-1.05,0 -1.372,-0.448 -1.372,-1.54l0,-4.9l-1.022,0l0,-0.966l1.022,0l0,-2.058Z" style="fill:#000;fill-rule:nonzero;"/><path d="M298.056,15.78l-5.404,0c0.028,1.54 0.854,2.408 2.198,2.408c1.008,0 1.694,-0.518 1.904,-1.47l1.176,0c-0.252,1.61 -1.47,2.576 -3.276,2.576c-1.974,0 -3.262,-1.4 -3.262,-3.864c0,-2.436 1.302,-3.878 3.318,-3.878c2.114,0 3.346,1.316 3.346,3.696c0,0.154 0,0.35 0,0.532ZM296.782,14.758c-0.028,-1.372 -0.756,-2.114 -2.058,-2.114c-1.218,0 -1.96,0.742 -2.072,2.114l4.13,0Z" style="fill:#000;fill-rule:nonzero;"/><path d="M304.902,13.82l-1.204,0c-0.042,-0.77 -0.658,-1.218 -1.68,-1.218c-1.008,0 -1.512,0.364 -1.512,1.036c0,0.518 0.392,0.714 1.148,0.896l1.204,0.28c1.414,0.336 2.254,0.784 2.254,2.044c0,1.526 -1.092,2.436 -3.094,2.436c-1.876,0 -2.912,-0.91 -2.954,-2.59l1.218,0c0.056,0.98 0.686,1.512 1.862,1.512c1.078,0 1.722,-0.462 1.722,-1.176c0,-0.616 -0.364,-0.798 -1.134,-0.966l-1.372,-0.364c-1.4,-0.35 -2.072,-0.812 -2.072,-1.96c0,-1.344 0.994,-2.198 2.73,-2.198c1.778,0 2.884,0.91 2.884,2.24l0,0.028Z" style="fill:#000;fill-rule:nonzero;"/><path d="M312.77,8.822l0.924,0c-1.316,2.17 -1.946,4.326 -1.946,6.58c0,2.24 0.63,4.368 1.946,6.58l-0.924,0c-1.568,-2.114 -2.31,-4.172 -2.31,-6.58c0,-2.394 0.742,-4.452 2.31,-6.58Z" style="fill:#000;fill-rule:nonzero;"/><path d="M314.58,12.098c1.344,0 1.54,1.078 2.282,4.998l0.028,0l1.596,-4.914l1.456,0l-2.884,6.104c0.112,0.462 0.266,1.358 0.266,2.086c0,0.588 -0.112,1.862 -0.952,1.862c-0.546,0 -0.7,-0.574 -0.7,-1.022c0,-0.98 0.812,-2.884 0.84,-2.968c-0.14,-0.756 -0.21,-1.554 -0.392,-2.254c-0.28,-1.148 -0.532,-1.918 -0.84,-2.366c-0.126,-0.238 -0.448,-0.448 -0.784,-0.448c-0.476,0 -1.064,0.434 -1.008,1.456l-0.252,0c0,-0.798 0.042,-2.534 1.344,-2.534Z" style="fill:#000;fill-rule:nonzero;"/><path d="M319.462,16.48l7.084,0l0,0.994l-7.084,0l0,-0.994ZM319.462,13.624l7.084,0l0,1.008l-7.084,0l0,-1.008Z" style="fill:#000;fill-rule:nonzero;"/><path d="M327.61,14.17c0,-3.206 1.204,-4.928 3.374,-4.928c2.226,0 3.374,1.75 3.374,5.068c0,3.346 -1.148,5.04 -3.374,5.04c-2.226,0 -3.374,-1.736 -3.374,-5.18ZM330.984,10.432c-1.358,0 -2.016,1.19 -2.016,3.668c0,2.744 0.518,4.116 2.016,4.116c1.47,0 2.016,-1.246 2.016,-3.906c0,-2.618 -0.546,-3.878 -2.016,-3.878Z" style="fill:#000;fill-rule:nonzero;"/><path d="M336.094,17.6l1.456,0l0,1.624c0,1.008 -0.532,1.694 -1.456,1.918l0,-0.672c0.42,-0.098 0.714,-0.504 0.714,-1.148l0,-0.224l-0.714,0l0,-1.498Z" style="fill:#000;fill-rule:nonzero;"/><path d="M345.943,8.724c1.61,0 2.8,0.644 2.8,1.414c0,0.364 -0.35,0.574 -0.63,0.574c-0.924,0 -1.176,-1.414 -2.478,-1.414c-0.462,0 -1.022,0.294 -1.022,0.84c0,0.532 0.686,0.98 1.106,1.302c0.56,0.448 1.526,0.798 2.436,1.722c0.574,0.546 1.162,1.428 1.162,2.744c0,2.114 -1.764,3.444 -3.276,3.444c-1.68,0 -2.898,-1.512 -2.898,-3.094c0,-0.686 0.196,-2.604 3.01,-3.416l-1.722,-1.582c-0.28,-0.266 -0.504,-0.77 -0.504,-1.176c0,-0.742 0.812,-1.358 2.016,-1.358ZM346.587,13.232c-0.98,0.238 -1.974,0.77 -1.974,2.758c0,1.008 0.364,2.716 1.736,2.716c1.092,0 1.61,-1.176 1.61,-2.366c0,-1.162 -0.434,-2.212 -1.372,-3.108Z" style="fill:#000;fill-rule:nonzero;"/><path d="M349.962,16.48l7.084,0l0,0.994l-7.084,0l0,-0.994ZM349.962,13.624l7.084,0l0,1.008l-7.084,0l0,-1.008Z" style="fill:#000;fill-rule:nonzero;"/><path d="M358.11,14.17c0,-3.206 1.204,-4.928 3.374,-4.928c2.226,0 3.374,1.75 3.374,5.068c0,3.346 -1.148,5.04 -3.374,5.04c-2.226,0 -3.374,-1.736 -3.374,-5.18ZM361.484,10.432c-1.358,0 -2.016,1.19 -2.016,3.668c0,2.744 0.518,4.116 2.016,4.116c1.47,0 2.016,-1.246 2.016,-3.906c0,-2.618 -0.546,-3.878 -2.016,-3.878Z" style="fill:#000;fill-rule:nonzero;"/><path d="M365.852,21.982c1.302,-2.212 1.96,-4.34 1.96,-6.58c0,-2.24 -0.658,-4.41 -1.96,-6.58l0.896,0c1.596,2.128 2.338,4.186 2.338,6.58c0,2.408 -0.742,4.466 -2.338,6.58l-0.896,0Z" style="fill:#000;fill-rule:nonzero;"/><path d="M375.148,17.6l1.456,0l0,1.624c0,1.008 -0.532,1.694 -1.456,1.918l0,-0.672c0.42,-0.098 0.714,-0.504 0.714,-1.148l0,-0.224l-0.714,0l0,-1.498Z" style="fill:#000;fill-rule:nonzero;"/><path d="M383.73,18.3l0,3.682l-1.204,0l0,-10.192l1.204,0l0,0.896c0.56,-0.798 1.218,-1.134 2.184,-1.134c1.792,0 3.038,1.414 3.038,3.85c0,2.492 -1.274,3.892 -3.038,3.892c-0.938,0 -1.666,-0.35 -2.184,-0.994ZM385.718,12.658c-1.302,0 -2.03,0.98 -2.03,2.814c0,1.792 0.672,2.744 1.932,2.744c1.288,0 2.044,-0.994 2.044,-2.898c0,-1.666 -0.826,-2.66 -1.946,-2.66Z" style="fill:#000;fill-rule:nonzero;"/><path d="M389.57,18.186l6.413,0l0,0.968l-2.673,0l0,6.93l-1.078,0l0,-6.93l-2.662,0l0,-0.968Z" style="fill:#000;fill-rule:nonzero;"/><path d="M400.521,16.48l7.084,0l0,0.994l-7.084,0l0,-0.994ZM400.521,13.624l7.084,0l0,1.008l-7.084,0l0,-1.008Z" style="fill:#000;fill-rule:nonzero;"/><path d="M412.561,14.17c0,-3.206 1.204,-4.928 3.374,-4.928c2.226,0 3.374,1.75 3.374,5.068c0,3.346 -1.148,5.04 -3.374,5.04c-2.226,0 -3.374,-1.736 -3.374,-5.18ZM415.935,10.432c-1.358,0 -2.016,1.19 -2.016,3.668c0,2.744 0.518,4.116 2.016,4.116c1.47,0 2.016,-1.246 2.016,-3.906c0,-2.618 -0.546,-3.878 -2.016,-3.878Z" style="fill:#000;fill-rule:nonzero;"/><rect x="421.045" y="17.6" width="1.456" height="1.484" style="fill:#000;fill-rule:nonzero;"/><path d="M427.443,12.14l-2.31,0l0,-1.008c1.652,0 2.45,-0.532 2.632,-1.89l0.98,0l0,9.842l-1.302,0l0,-6.944Z" style="fill:#000;fill-rule:nonzero;"/><path d="M441.989,13.82l0,3.64c0,0.476 0.056,0.728 0.504,0.728c0.084,0 0.182,0 0.322,-0.042l0,0.966c-0.252,0.07 -0.476,0.126 -0.714,0.126c-0.826,0 -1.218,-0.378 -1.218,-1.162c-0.77,0.84 -1.624,1.218 -2.618,1.218c-1.54,0 -2.366,-0.84 -2.366,-2.184c0,-1.512 0.938,-2.114 2.87,-2.324c1.75,-0.182 2.03,-0.098 2.03,-1.022c0,-0.756 -0.574,-1.12 -1.694,-1.12c-1.162,0 -1.75,0.462 -1.75,1.33l-1.148,0l0,-0.07c0,-1.428 1.092,-2.352 2.94,-2.352c1.988,0 2.842,0.728 2.842,2.268ZM440.799,15.36c-0.728,0.35 -1.512,0.364 -2.38,0.504c-0.882,0.168 -1.302,0.49 -1.302,1.218c0,0.728 0.49,1.134 1.358,1.134c1.33,0 2.324,-0.714 2.324,-1.75l0,-1.106Z" style="fill:#000;fill-rule:nonzero;"/><path d="M444.397,9.718l1.148,0l0,2.058l1.232,0l0,0.966l-1.232,0l0,4.48c0,0.56 0.07,0.84 0.574,0.84c0.196,0 0.392,-0.028 0.658,-0.056l0,1.064c-0.378,0.07 -0.7,0.112 -1.008,0.112c-1.05,0 -1.372,-0.448 -1.372,-1.54l0,-4.9l-1.022,0l0,-0.966l1.022,0l0,-2.058Z" style="fill:#000;fill-rule:nonzero;"/><path d="M456.871,11.972c-0.098,-1.022 -0.728,-1.582 -1.75,-1.582c-1.414,0 -2.114,1.162 -2.254,3.556c0.546,-0.7 1.302,-1.078 2.282,-1.078c1.764,0 3.066,1.232 3.066,3.234c0,1.89 -1.274,3.248 -3.248,3.248c-2.226,0 -3.472,-1.596 -3.472,-4.592c0,-3.584 1.372,-5.516 3.626,-5.516c1.82,0 2.884,1.008 2.996,2.73l-1.246,0ZM454.967,18.258c1.134,0 1.904,-0.854 1.904,-2.156c0,-1.302 -0.77,-2.086 -1.862,-2.086c-1.246,0 -2.002,0.784 -2.002,2.086c0,1.33 0.756,2.156 1.96,2.156Z" style="fill:#000;fill-rule:nonzero;"/><path d="M463.549,9.032l1.218,0l0,3.724c0.462,-0.742 1.176,-1.148 2.198,-1.148c1.078,0 1.82,0.336 2.24,0.994c0.28,0.434 0.308,0.966 0.308,1.61l0,4.872l-1.26,0l0,-4.914c0,-0.966 -0.476,-1.484 -1.4,-1.484c-1.274,0 -2.086,0.812 -2.086,2.086l0,4.312l-1.218,0l0,-10.052Z" style="fill:#000;fill-rule:nonzero;"/><path d="M475.071,11.58l0,1.302c-0.098,-0.014 -0.196,-0.014 -0.308,-0.014c-1.302,0 -2.016,0.77 -2.016,2.114l0,4.102l-1.246,0l0,-7.364l1.204,0l0,1.33c0.364,-0.98 1.064,-1.498 1.988,-1.498c0.042,0 0.168,0 0.378,0.028Z" style="fill:#000;fill-rule:nonzero;"/><path d="M390.5,95.167l-0.001,-53.75l103.834,0l0,53.75l-103.833,0Z" style="fill:#fff;"/><path d="M390.5,95.167l-0.001,-53.75l103.834,0l0,53.75l-103.834,0" style="fill:none;stroke-width:0.5px;stroke-linejoin:miter;stroke:#fff;"/><path d="M390.5,95.167l103.833,0" style="fill:none;stroke-width:0.5px;stroke-linejoin:miter;stroke:#000;"/><path d="M390.5,41.417l103.833,0" style="fill:none;stroke-width:0.5px;stroke-linejoin:miter;stroke:#000;"/><path d="M390.5,95.167l0,-53.75" style="fill:none;stroke-width:0.5px;stroke-linejoin:miter;stroke:#000;"/><path d="M494.333,95.167l0,-53.75" style="fill:none;stroke-width:0.5px;stroke-linejoin:miter;stroke:#000;"/><path d="M390.5,95.167l103.833,0" style="fill:none;stroke-width:0.5px;stroke-linejoin:miter;stroke:#000;"/><path d="M390.5,95.167l0,-53.75" style="fill:none;stroke-width:0.5px;stroke-linejoin:miter;stroke:#000;"/><path d="M390.5,95.167l103.833,0" style="fill:none;stroke-width:0.5px;stroke-linejoin:miter;stroke:#000;"/><path d="M390.5,41.417l103.833,0" style="fill:none;stroke-width:0.5px;stroke-linejoin:miter;stroke:#000;"/><path d="M390.5,95.167l0,-53.75" style="fill:none;stroke-width:0.5px;stroke-linejoin:miter;stroke:#000;"/><path d="M494.333,95.167l0,-53.75" style="fill:none;stroke-width:0.5px;stroke-linejoin:miter;stroke:#000;"/><path d="M437.455,49.305l-1.288,0c-0.084,-1.344 -0.98,-2.086 -2.478,-2.086c-1.442,0 -2.324,0.644 -2.324,1.638c0,1.26 1.022,1.372 3.178,1.834c2.002,0.462 3.22,0.952 3.22,2.8c0,1.932 -1.484,3.192 -3.962,3.192c-2.506,0 -3.948,-1.288 -4.032,-3.612l1.274,0c0.056,1.512 1.106,2.408 2.814,2.408c1.582,0 2.548,-0.714 2.548,-1.848c0,-1.246 -1.148,-1.358 -3.192,-1.848c-2.002,-0.49 -3.136,-1.05 -3.136,-2.716c0,-1.75 1.414,-2.968 3.682,-2.968c2.296,0 3.682,1.19 3.696,3.206Z" style="fill:#000;fill-rule:nonzero;"/><path d="M443.853,46.099c3.052,0 4.914,1.932 4.914,5.292c0,3.36 -1.862,5.292 -4.914,5.292c-3.038,0 -4.886,-1.932 -4.886,-5.292c0,-3.36 1.848,-5.292 4.886,-5.292ZM443.853,47.261c-2.128,0 -3.444,1.512 -3.444,4.13c0,2.618 1.316,4.144 3.444,4.144c2.142,0 3.458,-1.526 3.458,-4.144c0,-2.618 -1.316,-4.13 -3.458,-4.13Z" style="fill:#000;fill-rule:nonzero;"/><path d="M449.509,46.365l8.162,0l0,1.232l-3.402,0l0,8.82l-1.372,0l0,-8.82l-3.388,0l0,-1.232Z" style="fill:#000;fill-rule:nonzero;"/><path d="M458.931,46.365l1.344,0l0,8.792l5.11,0l0,1.26l-6.454,0l0,-10.052Z" style="fill:#000;fill-rule:nonzero;"/></g><rect x="406.499" y="46.584" width="9.5" height="9.5" style="fill:none;stroke-width:0.5px;stroke-linejoin:miter;stroke:#f00;"/><g><path d="M437.455,66.222l-1.288,0c-0.084,-1.344 -0.98,-2.086 -2.478,-2.086c-1.442,0 -2.324,0.644 -2.324,1.638c0,1.26 1.022,1.372 3.178,1.834c2.002,0.462 3.22,0.952 3.22,2.8c0,1.932 -1.484,3.192 -3.962,3.192c-2.506,0 -3.948,-1.288 -4.032,-3.612l1.274,0c0.056,1.512 1.106,2.408 2.814,2.408c1.582,0 2.548,-0.714 2.548,-1.848c0,-1.246 -1.148,-1.358 -3.192,-1.848c-2.002,-0.49 -3.136,-1.05 -3.136,-2.716c0,-1.75 1.414,-2.968 3.682,-2.968c2.296,0 3.682,1.19 3.696,3.206Z" style="fill:#000;fill-rule:nonzero;"/><path d="M447.857,66.292l-1.358,0c-0.238,-1.33 -1.246,-2.086 -2.786,-2.086c-2.086,0 -3.276,1.498 -3.276,4.116c0,2.464 1.288,4.074 3.22,4.074c1.708,0 2.856,-1.134 2.954,-2.8l1.344,0c-0.126,2.408 -1.848,4.004 -4.34,4.004c-2.814,0 -4.578,-2.03 -4.578,-5.348c0,-3.234 1.792,-5.236 4.746,-5.236c2.282,0 3.836,1.302 4.074,3.276Z" style="fill:#000;fill-rule:nonzero;"/><path d="M452.477,63.282l1.442,0l3.766,10.052l-1.428,0l-1.064,-2.996l-4.032,0l-1.106,2.996l-1.33,0l3.752,-10.052ZM453.205,64.654l-1.638,4.522l3.234,0l-1.596,-4.522Z" style="fill:#000;fill-rule:nonzero;"/><path d="M458.063,63.282l8.162,0l0,1.232l-3.402,0l0,8.82l-1.372,0l0,-8.82l-3.388,0l0,-1.232Z" style="fill:#000;fill-rule:nonzero;"/><path d="M474.793,66.222l-1.288,0c-0.084,-1.344 -0.98,-2.086 -2.478,-2.086c-1.442,0 -2.324,0.644 -2.324,1.638c0,1.26 1.022,1.372 3.178,1.834c2.002,0.462 3.22,0.952 3.22,2.8c0,1.932 -1.484,3.192 -3.962,3.192c-2.506,0 -3.948,-1.288 -4.032,-3.612l1.274,0c0.056,1.512 1.106,2.408 2.814,2.408c1.582,0 2.548,-0.714 2.548,-1.848c0,-1.246 -1.148,-1.358 -3.192,-1.848c-2.002,-0.49 -3.136,-1.05 -3.136,-2.716c0,-1.75 1.414,-2.968 3.682,-2.968c2.296,0 3.682,1.19 3.696,3.206Z" style="fill:#000;fill-rule:nonzero;"/><rect x="476.375" y="68.826" width="3.43" height="1.26" style="fill:#000;fill-rule:nonzero;"/><path d="M481.485,63.282l1.344,0l0,8.792l5.11,0l0,1.26l-6.454,0l0,-10.052Z" style="fill:#000;fill-rule:nonzero;"/></g><g><clipPath id="_clip2"><path d="M390.5,41.417l103.916,0l0,53.833l-103.917,0l0.001,-53.833Z"/></clipPath><g clip-path="url(#_clip2)"><path d="M407.083,64.084l8.333,8.333" style="fill:none;stroke-width:0.5px;stroke-linejoin:miter;stroke:#000;"/><path d="M415.416,64.084l-8.333,8.333" style="fill:none;stroke-width:0.5px;stroke-linejoin:miter;stroke:#000;"/></g></g><g><path d="M437.455,83.138l-1.288,0c-0.084,-1.344 -0.98,-2.086 -2.478,-2.086c-1.442,0 -2.324,0.644 -2.324,1.638c0,1.26 1.022,1.372 3.178,1.834c2.002,0.462 3.22,0.952 3.22,2.8c0,1.932 -1.484,3.192 -3.962,3.192c-2.506,0 -3.948,-1.288 -4.032,-3.612l1.274,0c0.056,1.512 1.106,2.408 2.814,2.408c1.582,0 2.548,-0.714 2.548,-1.848c0,-1.246 -1.148,-1.358 -3.192,-1.848c-2.002,-0.49 -3.136,-1.05 -3.136,-2.716c0,-1.75 1.414,-2.968 3.682,-2.968c2.296,0 3.682,1.19 3.696,3.206Z" style="fill:#000;fill-rule:nonzero;"/><path d="M447.857,83.208l-1.358,0c-0.238,-1.33 -1.246,-2.086 -2.786,-2.086c-2.086,0 -3.276,1.498 -3.276,4.116c0,2.464 1.288,4.074 3.22,4.074c1.708,0 2.856,-1.134 2.954,-2.8l1.344,0c-0.126,2.408 -1.848,4.004 -4.34,4.004c-2.814,0 -4.578,-2.03 -4.578,-5.348c0,-3.234 1.792,-5.236 4.746,-5.236c2.282,0 3.836,1.302 4.074,3.276Z" style="fill:#000;fill-rule:nonzero;"/><path d="M452.477,80.198l1.442,0l3.766,10.052l-1.428,0l-1.064,-2.996l-4.032,0l-1.106,2.996l-1.33,0l3.752,-10.052ZM453.205,81.57l-1.638,4.522l3.234,0l-1.596,-4.522Z" style="fill:#000;fill-rule:nonzero;"/><path d="M458.063,80.198l8.162,0l0,1.232l-3.402,0l0,8.82l-1.372,0l0,-8.82l-3.388,0l0,-1.232Z" style="fill:#000;fill-rule:nonzero;"/><path d="M474.793,83.138l-1.288,0c-0.084,-1.344 -0.98,-2.086 -2.478,-2.086c-1.442,0 -2.324,0.644 -2.324,1.638c0,1.26 1.022,1.372 3.178,1.834c2.002,0.462 3.22,0.952 3.22,2.8c0,1.932 -1.484,3.192 -3.962,3.192c-2.506,0 -3.948,-1.288 -4.032,-3.612l1.274,0c0.056,1.512 1.106,2.408 2.814,2.408c1.582,0 2.548,-0.714 2.548,-1.848c0,-1.246 -1.148,-1.358 -3.192,-1.848c-2.002,-0.49 -3.136,-1.05 -3.136,-2.716c0,-1.75 1.414,-2.968 3.682,-2.968c2.296,0 3.682,1.19 3.696,3.206Z" style="fill:#000;fill-rule:nonzero;"/><rect x="476.375" y="85.742" width="3.43" height="1.26" style="fill:#000;fill-rule:nonzero;"/><path d="M481.625,80.198l6.958,0l0,1.274l-5.6,0l0,3.038l4.886,0l0,1.218l-4.886,0l0,4.522l-1.358,0l0,-10.052Z" style="fill:#000;fill-rule:nonzero;"/></g><path d="M404.333,89.167l13.833,0l-6.916,-11.917l-6.917,11.917Z" style="fill:none;stroke-width:0.5px;stroke-linejoin:miter;stroke:#00f;"/></g></svg>